<ttFont>
          <CharString index="0">
            -19 -61 -9 callsubr
            44 -23 -42 29 -52 hhcurveto
            -135 -128 -147 -187 hvcurveto
            168 -112 -43 callgsubr
            -48 -54 -30 -51 hhcurveto
            return
          </CharString>
          <CharString index="1">
            -34 callsubr
            -61 -59 -47 -27 -38 hhcurveto
            -50 -22 26 49 17 3 14 5 26 hvcurveto
            61 300 -46 callgsubr
            -62 -310 rlineto
            -6 -26 -2 -18 -23 vvcurveto
            -74 33 -47 82 59 56 39 47 53 vhcurveto
            4 hlineto
            return
          </CharString>
          <CharString index="2">
            -4 -57 rlineto
            62 hlineto
            57 286 rlineto
            5 21 3 26 20 vvcurveto
            103 -56 42 -94 -59 -64 -22 -28 -51 vhcurveto
            25 -56 rlineto
            27 47 44 17 44 hhcurveto
            59 29 -24 -66 -14 -1 -12 -5 -19 hvcurveto
            return
          </CharString>
          <CharString index="3">
            rmoveto
            58 112 37 72 33 66 35 76 rlinecurve
            4 hlineto
            5 -75 7 -70 6 -69 10 -112 rcurveline
            -61 391 rmoveto
            -356 -656 rlineto
            86 hlineto
            105 205 67 callgsubr
            18 -205 rlineto
            81 hlineto
            -76 656 rlineto
            return
          </CharString>
          <CharString index="4">
            35 hmoveto
            370 -27 callgsubr
            -294 hlineto
            51 246 rlineto
            239 -27 callgsubr
            -241 hlineto
            42 213 rlineto
            285 hlineto
            13 65 rlineto
            -362 hlineto
            return
          </CharString>
          <CharString index="5">
            -19 -61 rlineto
            -3 hlineto
            44 -23 -43 29 -51 hhcurveto
            -131 -126 -144 -178 -113 59 -58 82 62 55 32 46 48 hvcurveto
            3 hlineto
            -24 -100 rlineto
            -88 -21 -49 -57 -83 hhcurveto
            -54 -46 26 32 -37 hvcurveto
            -36 -53 rlineto
            -39 47 58 -28 65 hhcurveto
            122 80 72 129 26 hvcurveto
            return
          </CharString>
          <CharString index="6">
            12 104 rmoveto
            -78 53 76 -38 90 hhcurveto
            133 95 84 117 73 -36 44 -63 37 hvcurveto
            -76 45 rlineto
            -48 29 -37 27 51 vvcurveto
            53 45 53 74 61 46 -31 -40 34 vhcurveto
            51 46 rlineto
            53 -41 -67 39 -78 hhcurveto
            -118 -86 -83 -99 -74 45 -46 56 -34 hvcurveto
            76 -46 rlineto
            49 -30 33 -30 -48 vvcurveto
            -75 -61 -49 -80 -73 -57 35 58 -39 vhcurveto
            return
          </CharString>
          <CharString index="7">
            -4 80 rmoveto
            -51 33 69 -41 65 hhcurveto
            105 77 59 91 53 -27 37 -87 48 hvcurveto
            -44 24 -42 21 41 vvcurveto
            41 40 35 52 44 31 -21 -27 26 vhcurveto
            44 43 rlineto
            38 -36 -48 27 -59 hhcurveto
            -91 -76 -59 -86 -55 36 -37 75 -41 hvcurveto
            68 -37 21 -20 -35 vvcurveto
            -44 -47 -37 -56 -51 -44 29 42 -30 vhcurveto
            return
          </CharString>
          <CharString index="8">
            rmoveto
            50 253 rlineto
            96 hlineto
            96 51 -29 -72 -93 -69 -59 -125 hvcurveto
            -114 315 rmoveto
            -131 -656 rlineto
            78 hlineto
            55 278 rlineto
            114 hlineto
            108 -278 rlineto
            83 hlineto
            -115 285 rlineto
            111 22 82 75 121 vvcurveto
            110 -83 43 -122 vhcurveto
            endchar
          </CharString>
          <CharString index="9">
            139 hmoveto
            77 hlineto
            52 256 274 400 rlineto
            -83 hlineto
            -124 -188 -32 -48 -28 -46 -30 -49 rlinecurve
            -4 hlineto
            -12 50 -9 44 -12 48 -45 189 rcurveline
            -80 hlineto
            107 -400 rlineto
            return
          </CharString>
          <CharString index="10">
            39 164 rmoveto
            -89 callsubr
            vhcurveto
            4 hlineto
            return
          </CharString>
          <CharString index="11">
            -7 hmoveto
            237 -27 callgsubr
            -81 hlineto
            105 525 rlineto
            81 hlineto
            14 65 rlineto
            -238 hlineto
            -14 -65 rlineto
            80 hlineto
            -106 -525 -19 callsubr
            return
          </CharString>
          <CharString index="12">
            -49 -12 60 281 57 200 64 hstem
            51 72 240 71 vstem
            261 329 rmoveto
            67 35 -47 -73 -81 -58 -80 -73 -67 -42 62 92 16 0 15 1 15 hvcurveto
            63 50 56 18 31 hhcurveto
            227 240 rmoveto
            43 -27 -43 38 -69 hhcurveto
            -171 -127 -186 -260 -126 68 -90 109 117 89 107 125 104 -61 62 -94 -44 -60 -24 -50 -44 hvcurveto
            167 27 87 107 100 hhcurveto
            41 28 -21 -37 22 hvcurveto
            endchar
          </CharString>
          <CharString index="13">
            32 106 rmoveto
            -76 56 -42 65 55 61 31 38 42 vhcurveto
            3 hlineto
            return
          </CharString>
          <CharString index="14">
            37 183 rmoveto
            -124 73 -71 106 71 50 30 27 35 vhcurveto
            -34 50 rlineto
            -23 -30 -35 -20 -43 hhcurveto
            -77 -38 48 88 133 91 114 97 38 23 -14 -30 25 hvcurveto
            45 48 rlineto
            33 -29 -39 26 -58 hhcurveto
            -141 -130 -134 -181 hvcurveto
            return
          </CharString>
          <CharString index="15">
            -73 8 -20 14 33 vvcurveto
            22 16 21 17 12 vhcurveto
            -6 14 16 -3 20 hhcurveto
            117 85 85 116 24 -9 27 -15 20 hvcurveto
            96 hlineto
            12 60 rlineto
            -166 hlineto
            return
          </CharString>
          <CharString index="16">
            -8 -72 rlineto
            63 hlineto
            97 486 rlineto
            -62 hlineto
            return
          </CharString>
          <CharString index="17">
            -1 59 rlineto
            -3 -9 -3 0 -4 hhcurveto
            -10 -7 6 12 4 0 5 2 10 hvcurveto
            125 623 -46 callgsubr
            return
          </CharString>
          <CharString index="18">
            -114 55 -62 85 61 61 34 50 47 return
          </CharString>
          <CharString index="19">
            65 -290 rmoveto
            21 -5 22 -4 16 -2 rrcurveto
            79 -9 40 -18 -42 vvcurveto
            -53 -65 -41 -87 -67 -50 23 55 41 51 36 40 19 vhcurveto
            return
          </CharString>
          <CharString index="20">
            20 -32 -40 11 -46 hhcurveto
            -188 -131 -205 -200 -166 80 -109 147 188 131 205 201 88 -23 73 -44 48 hvcurveto
            return
          </CharString>
          <CharString index="21">
            hstem
            35 493 vstem
            -103 callsubr
            return
          </CharString>
          <CharString index="22">
            -10 175 callsubr
            -33 -41 -18 -53 -9 vhcurveto
            4 -35 175 callgsubr
            30 65 vvcurveto
            31 return
          </CharString>
          <CharString index="23">
            116 66 138 125 87 -46 65 -77 -116 -66 -139 -124 -87 46 -65 77 hvcurveto
            return
          </CharString>
          <CharString index="24">
            23 30 26 -17 16 -24 -28 -23 -25 -30 -25 17 -15 return
          </CharString>
          <CharString index="25">
            105 hmoveto
            92 hlineto
            118 266 20 46 19 49 20 48 rlinecurve
            4 hlineto
            1 -48 1 -49 1 -46 14 -266 rcurveline
            95 hlineto
            221 486 rlineto
            -72 hlineto
            return
          </CharString>
          <CharString index="26">
            -54 -26 -63 -42 -64 vvcurveto
            -88 98 -29 80 119 116 56 110 64 -42 32 -126 15 vhcurveto
            return
          </CharString>
          <CharString index="27">
            -42 callgsubr
            hstemhm
            39 79 hintmask 11011000
            435 486 rmoveto
            hintmask 11101000
            -102 callsubr
            hintmask 11011000
            -57 callgsubr
            hintmask 11101000
            -70 callgsubr
            hintmask 11011000
            60 callsubr
            endchar
          </CharString>
          <CharString index="28">
            144 callgsubr
            -38 -16 -58 -9 vhcurveto
            4 -36 175 callgsubr
            24 67 vvcurveto
            36 return
          </CharString>
          <CharString index="29">
            vstem
            -1 hmoveto
            426 hlineto
            15 66 rlineto
            -331 hlineto
            422 544 10 46 rlineto
            -393 hlineto
            -14 -65 rlineto
            300 hlineto
            -425 -544 rlineto
            return
          </CharString>
          <CharString index="30">
            -10 hmoveto
            351 hlineto
            12 62 rlineto
            -254 hlineto
            323 379 8 45 rlineto
            -317 hlineto
            -13 -62 rlineto
            221 hlineto
            -323 -380 rlineto
            return
          </CharString>
          <CharString index="31">
            133 439 rmoveto
            48 29 -37 -55 -73 -54 -71 -72 -48 -30 36 56 73 54 71 73 hvcurveto
            return
          </CharString>
          <CharString index="32">
            rmoveto
            235 hlineto
            10 53 0 callgsubr
            return
          </CharString>
          <CharString index="33">
            rmoveto
            62 hlineto
            136 141 rlineto
            -82 hlineto
            endchar
          </CharString>
          <CharString index="34">
            rmoveto
            -43 24 45 -37 66 hhcurveto
            79 72 60 91 70 -46 44 -64 -16 -21 -4 -11 -17 hvcurveto
            29 101 rlineto
            157 hlineto
            10 51 182 callgsubr
            -53 -187 23 -23 rlineto
            18 25 19 11 30 hhcurveto
            42 28 -28 -48 -58 -45 -38 -43 -50 173 callgsubr
            return
          </CharString>
          <CharString index="35">
            rmoveto
            27 21 23 28 23 -14 14 -23 -25 -22 -23 -29 -21 14 155 callgsubr
            126 callsubr
            -21 -26 -22 -23 -29 -21 15 -15 21 hvcurveto
            endchar
          </CharString>
          <CharString index="36">
            rmoveto
            25 callsubr
            27 callgsubr
            hvcurveto
            return
          </CharString>
          <CharString index="37">
            -4 -17 -2 -14 -11 vvcurveto
            -40 22 -23 43 21 14 3 5 13 vhcurveto
            return
          </CharString>
          <CharString index="38">
            102 callgsubr
            62 312 rlineto
            296 hlineto
            -63 -312 rlineto
            -11 callgsubr
            -77 hlineto
            -56 -277 rlineto
            -296 hlineto
            56 277 -19 callsubr
            return
          </CharString>
          <CharString index="39">
            -49 -85 64 38 -21 172 57 301 60 hstemhm
            51 71 249 72 hintmask 01111100
            227 225 rmoveto
            -67 -38 50 80 85 63 86 77 67 42 -63 -91 -24 -1 -23 -2 -22 hvcurveto
            -62 -53 -54 -16 -34 hhcurveto
            -224 -229 rmoveto
            hintmask 11111100
            -43 27 43 -38 69 hhcurveto
            173 128 190 265 126 -67 90 -109 -124 -92 -112 -130 -112 66 -64 92 45 58 22 47 47 hvcurveto
            -158 -31 -84 -100 -97 hhcurveto
            -42 -28 21 37 -22 hvcurveto
            endchar
          </CharString>
          <CharString index="40">
            -48 -12 61 178 52 158 61 return
          </CharString>
          <CharString index="41">
            rmoveto
            33 25 18 callgsubr
            -31 26 41 vhcurveto
            hintmask 11010100
            120 -25 callgsubr
            34 24 -22 -37 -28 -22 -28 -38 -22 vhcurveto
            hintmask 11101000
            83 callgsubr
            hintmask 11010100
            37 20 39 37 51 vvcurveto
            58 -45 39 -63 -69 -58 69 callsubr
            hintmask 11101000
            -48 66 callgsubr
          </CharString>
          <CharString index="42">
            -65 callgsubr
            166 hmoveto
            -15 callgsubr
            endchar
          </CharString>
          <CharString index="43">
            -11 -22 vvcurveto
            -25 -16 -14 -40 -11 vhcurveto
            5 -32 rlineto
            63 14 44 24 57 vvcurveto
            34 -31 25 -73 4 vhcurveto
            -236 -214 rmoveto
            55 hlineto
            70 73 -41 callsubr
            return
          </CharString>
          <CharString index="44">
            -56 callgsubr
            -12 -20 return
          </CharString>
          <CharString index="45">
            -47 91 rlineto
            -53 62 callsubr
            58 hlineto
            endchar
          </CharString>
          <CharString index="46">
            hlineto
            131 656 rlineto
            return
          </CharString>
          <CharString index="47">
            rmoveto
            484 684 rlineto
            -52 hlineto
            -484 -684 rlineto
            return
          </CharString>
          <CharString index="48">
            -49 -86 64 256 57 232 63 hstemhm
            327 76 -37 78 hintmask 11110000
            -22 24 rmoveto
            -59 41 69 -51 86 hhcurveto
            132 97 80 123 69 -42 48 -65 24 hvcurveto
            4 vlineto
            hintmask 11101000
            93 28 55 67 83 vvcurveto
            87 -60 59 -106 -62 -61 -22 -41 -54 vhcurveto
            40 -51 rlineto
            31 37 48 20 39 hhcurveto
            67 34 -40 -57 -62 -52 -73 -157 hvcurveto
            -12 -57 rlineto
            hintmask 11110000
            133 49 -50 -68 -78 -64 -60 -92 -65 -47 42 44 -30 hvcurveto
            endchar
          </CharString>
          <CharString index="49">
            vstem
            166 hmoveto
            78 hlineto
            117 589 rlineto
            191 hlineto
            13 67 rlineto
            -459 hlineto
            -13 -67 rlineto
            190 hlineto
            return
          </CharString>
          <CharString index="50">
            -519 -43 callsubr
            hintmask 11011110
            -39 callsubr
            hintmask 10111100
            -85 callgsubr
            hintmask 10111110
            -8 callsubr
          </CharString>
          <CharString index="51">
            -84 callsubr
            54 365 rmoveto
            49 -59 callgsubr
            75 hvcurveto
            endchar
          </CharString>
          <CharString index="52">
            -42 callsubr
            endchar
          </CharString>
          <CharString index="53">
            -12 -41 callgsubr
            return
          </CharString>
          <CharString index="54">
            337 rmoveto
            -50 36 -29 46 35 40 21 26 27 vhcurveto
            4 hlineto
            -4 -39 rlineto
            46 hlineto
            37 188 rlineto
            3 15 3 17 13 vvcurveto
            69 -38 28 -65 -40 -42 -14 -19 -36 vhcurveto
            19 -41 rlineto
            16 32 28 11 28 hhcurveto
            40 16 -19 -37 -8 0 -6 -3 -11 hvcurveto
            -121 -5 -91 -34 -92 vvcurveto
            205 93 rmoveto
            -16 -82 rlineto
            -27 -30 -28 -17 -29 hhcurveto
            -27 -19 13 31 51 58 28 91 3 hvcurveto
            endchar
          </CharString>
          <CharString index="55">
            -53 callgsubr
            69 344 rlineto
            61 57 51 27 29 hhcurveto
            48 118 callsubr
            69 344 rlineto
            61 58 51 27 28 hhcurveto
            48 23 -26 -49 -17 -3 -14 -5 -26 hvcurveto
            -61 -300 rlineto
            77 hlineto
            62 310 rlineto
            5 27 3 17 23 vvcurveto
            75 -34 46 -81 -50 -60 -36 -59 -62 vhcurveto
            53 -7 -28 42 -77 hhcurveto
            -51 -58 -37 -48 -51 hvcurveto
            -4 hlineto
            return
          </CharString>
          <CharString index="56">
            -53 callgsubr
            -6 callgsubr
            return
          </CharString>
          <CharString index="57">
            -229 -470 -43 callgsubr
            -49 -53 -30 -51 hhcurveto
            return
          </CharString>
          <CharString index="58">
            rmoveto
            55 hlineto
            70 73 -41 callsubr
            41 -73 rlineto
            49 hlineto
            -56 119 rlineto
            -58 hlineto
            return
          </CharString>
          <CharString index="59">
            -175 70 callgsubr
            60 377 rmoveto
            -77 37 -42 57 40 40 22 34 31 vhcurveto
            4 hlineto
            -6 -48 rlineto
            47 hlineto
            64 322 rlineto
            -46 hlineto
            -14 -39 -9 callsubr
            32 -15 -28 15 -31 hhcurveto
            -90 -86 -97 -122 hvcurveto
            113 -70 rmoveto
            -32 -23 24 53 86 60 78 60 22 22 -12 -34 17 hvcurveto
            -26 -133 rlineto
            -39 -30 -39 -23 -31 hhcurveto
            endchar
          </CharString>
          <CharString index="60">
            -20 callsubr
            -44 -13 vhcurveto
            return
          </CharString>
          <CharString index="61">
            102 callgsubr
            45 220 137 134 126 -354 rlineto
            81 hlineto
            -149 404 246 252 rlineto
            -88 hlineto
            -329 -324 rlineto
            -3 hlineto
            65 324 -19 callsubr
            return
          </CharString>
          <CharString index="62">
            rmoveto
            77 44 53 54 16 hvcurveto
            -43 hlineto
            -36 -12 -31 -30 -44 hhcurveto
            -42 -21 28 38 2 hvcurveto
            -41 hlineto
            -54 -5 27 -53 73 hhcurveto
            return
          </CharString>
          <CharString index="63">
            -49 -86 63 298 59 174 66 hstem
            331 77 vstem
            -20 22 rmoveto
            -61 39 61 -47 88 hhcurveto
            125 115 95 152 113 -71 60 -96 -33 -28 -8 -12 -23 hvcurveto
            54 194 rlineto
            232 -27 callgsubr
            -300 hlineto
            -81 -306 33 -26 rlineto
            22 41 24 11 42 hhcurveto
            69 46 -44 -83 -104 -75 -67 -84 -74 -39 42 43 -29 hvcurveto
            endchar
          </CharString>
          <CharString index="64">
            rmoveto
            -67 -37 48 88 136 88 111 89 67 37 -49 -88 -136 -87 -110 -90 hvcurveto
            return
          </CharString>
          <CharString index="65">
            rmoveto
            235 hlineto
            10 66 callsubr
            return
          </CharString>
          <CharString index="66">
            rlineto
            4 hlineto
            return
          </CharString>
          <CharString index="67">
            -21 486 -20 return
          </CharString>
          <CharString index="68">
            257 531 rmoveto
            5 110 callsubr
            -40 -27 -53 -5 vhcurveto
            return
          </CharString>
          <CharString index="69">
            rmoveto
            -43 24 45 26 callgsubr
            -22 38 -46 16 hvcurveto
            hintmask 11101000
            58 19 callgsubr
            26 -41 rlineto
            22 29 26 18 callsubr
            hintmask 11110000
            76 31 -32 -39 -46 -37 89 callgsubr
            -20 hvcurveto
            endchar
          </CharString>
          <CharString index="70">
            rmoveto
            29 20 88 callsubr
            -28 -21 -27 -25 -24 17 -14 20 149 callgsubr
            21 88 callsubr
            -29 -20 -27 -25 -24 15 -14 22 hvcurveto
            return
          </CharString>
          <CharString index="71">
            53 vstem
            242 691 rmoveto
            -75 -32 -57 -65 -92 vvcurveto
            -43 22 -25 31 32 22 26 31 28 -21 16 -28 vhcurveto
            -2 -1 0 -2 hhcurveto
            1 38 34 50 60 30 rrcurveto
            return
          </CharString>
          <CharString index="72">
            -36 -25 -22 -32 -33 vvcurveto
            -26 12 -25 19 -14 vhcurveto
            -2 vlineto
            return
          </CharString>
          <CharString index="73">
            hlineto
            -69 -344 rlineto
            return
          </CharString>
          <CharString index="74">
            rmoveto
            -39 -24 26 41 56 37 38 39 40 35 -30 -76 hvcurveto
            -2 0 -2 -2 vvcurveto
            -34 -26 -34 -15 -28 hhcurveto
            -153 -166 rmoveto
            -25 25 33 -13 40 hhcurveto
            104 96 92 170 93 -56 59 -71 -69 -68 -57 -91 -61 40 -45 66 39 36 21 24 22 hvcurveto
            -101 -14 -57 -55 -63 hhcurveto
            -29 -21 9 18 -19 hvcurveto
            endchar
          </CharString>
          <CharString index="75">
            rmoveto
            39 24 -26 -41 -56 -37 -38 -39 -39 -35 30 76 hvcurveto
            3 0 2 2 vvcurveto
            33 26 34 15 27 hhcurveto
            153 166 rmoveto
            25 -25 -33 13 -40 hhcurveto
            -103 -97 -92 -170 -93 56 -59 71 69 68 57 91 61 -40 45 -66 -38 -36 -20 -24 -22 hvcurveto
            101 15 56 54 62 hhcurveto
            29 21 -9 -18 19 hvcurveto
            endchar
          </CharString>
          <CharString index="76">
            390 rlineto
            -47 hlineto
            -32 -21 -26 -10 -52 -8 -8 -39 rcurveline
            90 hlineto
            return
          </CharString>
          <CharString index="77">
            -14 callsubr
            vhcurveto
            return
          </CharString>
          <CharString index="78">
            -22 callgsubr
            hvcurveto
            return
          </CharString>
          <CharString index="79">
            -16 -59 -9 vhcurveto
            4 -36 rlineto
            79 35 callgsubr
            return
          </CharString>
          <CharString index="80">
            -49 -12 61 475 62 hstem
            38 72 270 73 vstem
            201 -12 rmoveto
            154 98 207 185 125 -62 81 -100 -155 -98 -208 -185 -124 61 -81 102 hvcurveto
            83 536 rmoveto
            63 33 -54 -97 -146 -74 -178 -99 -63 -34 55 97 146 75 177 99 hvcurveto
            endchar
          </CharString>
          <CharString index="81">
            rmoveto
            217 146 191 197 162 -108 114 -155 -217 -145 -190 -197 -162 107 -115 155 hvcurveto
            97 624 rmoveto
            140 83 -100 -141 -169 -130 -173 -187 -139 -83 100 141 169 129 173 187 hvcurveto
            endchar
          </CharString>
          <CharString index="82">
            rmoveto
            82 46 8 callsubr
            return
          </CharString>
          <CharString index="83">
            rmoveto
            4 -13 1 -9 -11 vvcurveto
            -41 return
          </CharString>
          <CharString index="84">
            -12 67 601 -20 return
          </CharString>
          <CharString index="85">
            -29 23 -16 return
          </CharString>
          <CharString index="86">
            73 callsubr
            48 -64 rlineto
            58 130 callgsubr
            return
          </CharString>
          <CharString index="87">
            -12 -23 vvcurveto
            -27 -25 -14 return
          </CharString>
          <CharString index="88">
            rlineto
            -78 hlineto
            return
          </CharString>
          <CharString index="89">
            -53 callgsubr
            143 78 callgsubr
            return
          </CharString>
          <CharString index="90">
            -181 258 48 243 47 hstem
            59 57 182 58 vstem
            177 258 rmoveto
            89 90 82 127 81 -48 48 -71 -88 -90 -82 -126 -82 47 -48 71 hvcurveto
            56 291 rmoveto
            42 23 -32 -53 -86 -54 -72 -62 -43 -23 31 54 85 54 73 63 hvcurveto
            endchar
          </CharString>
          <CharString index="91">
            57 callsubr
            -16 76 callgsubr
            return
          </CharString>
          <CharString index="92">
            79 293 rmoveto
            -45 21 -37 29 -25 vhcurveto
            -4 vlineto
            return
          </CharString>
          <CharString index="93">
            33 callgsubr
            -25 -33 return
          </CharString>
          <CharString index="94">
            42 callgsubr
            hvcurveto
            return
          </CharString>
          <CharString index="95">
            21 63 callsubr
            return
          </CharString>
          <CharString index="96">
            -43 23 46 -37 66 hhcurveto
            79 72 60 91 70 -46 44 -65 -15 -22 -4 -11 -17 hvcurveto
            29 101 rlineto
            158 hlineto
            10 51 rlineto
            -207 hlineto
            -52 -187 23 -23 rlineto
            18 25 19 11 30 hhcurveto
            42 28 -28 -48 -58 -45 -38 -44 -50 100 callsubr
          </CharString>
          <CharString index="97">
            12 callgsubr
            72 hlineto
            endchar
          </CharString>
          <CharString index="98">
            rlineto
            -4 hlineto
            return
          </CharString>
          <CharString index="99">
            79 16 37 45 54 vvcurveto
            15 -2 15 -8 17 vhcurveto
            endchar
          </CharString>
          <CharString index="100">
            148 callgsubr
            39 15 -56 50 hhcurveto
            return
          </CharString>
          <CharString index="101">
            -51 28 hvcurveto
            -44 return
          </CharString>
          <CharString index="102">
            rmoveto
            20 -6 19 49 callsubr
            -58 -9 vhcurveto
            4 -36 rlineto
            78 35 callgsubr
            endchar
          </CharString>
          <CharString index="103">
            rmoveto
            -92 callgsubr
            -25 -32 -26 return
          </CharString>
          <CharString index="104">
            77 callgsubr
            -42 hlineto
            -47 -16 -34 -34 -46 hhcurveto
            -48 -19 32 49 4 hvcurveto
            -39 75 callsubr
            return
          </CharString>
          <CharString index="105">
            23 -22 -33 -37 -30 -41 -90 hvcurveto
            -9 -41 rlineto
            return
          </CharString>
          <CharString index="106">
            hhcurveto
            -43 -17 30 35 2 hvcurveto
            -45 76 callsubr
            return
          </CharString>
          <CharString index="107">
            -105 -47 86 128 -79 callgsubr
            return
          </CharString>
          <CharString index="108">
            29 23 23 31 22 -16 16 -21 -29 -23 -24 -30 -23 14 -15 23 hvcurveto
            endchar
          </CharString>
          <CharString index="109">
            rmoveto
            258 hlineto
            10 51 rlineto
            -164 hlineto
            129 97 66 66 83 vvcurveto
            65 -44 40 -72 -49 -39 -27 -36 -37 vhcurveto
            35 -36 rlineto
            27 25 28 20 28 hhcurveto
            44 21 -24 -38 -72 -68 -63 -164 -115 hvcurveto
            endchar
          </CharString>
          <CharString index="110">
            hstemhm
            99.5 79.5 257 64.5 return
          </CharString>
          <CharString index="111">
            rmoveto
            85 100 67 84 -41 callsubr
            -25 -108 -15 -76 rlineto
            110 hmoveto
            -58 hlineto
            48 241 rlineto
            -65 hlineto
            -213 165 callgsubr
            53 hlineto
            21 106 rlineto
            56 hlineto
            endchar
          </CharString>
          <CharString index="112">
            rmoveto
            54 hlineto
            119 142 rlineto
            -70 hlineto
            39 -142 rmoveto
            54 hlineto
            119 142 rlineto
            -71 hlineto
            endchar
          </CharString>
          <CharString index="113">
            vstem
            362 184 rmoveto
            94 472 -19 callsubr
            -92 -461 rlineto
            -87 -17 -42 -53 -66 hhcurveto
            -55 -38 29 48 -19 hvcurveto
            -51 -43 rlineto
            -61 28 55 -40 78 hhcurveto
            114 67 83 113 22 hvcurveto
            return
          </CharString>
          <CharString index="114">
            -23 -16 -32 -23 17 -14 20 vhcurveto
            1 1 0 2 hhcurveto
            -7 -37 -28 -23 return
          </CharString>
          <CharString index="115">
            64 61 18 hvcurveto
            -48 hlineto
            -44 -15 -31 -35 return
          </CharString>
          <CharString index="116">
            59 -12 66 221 64 262 67 return
          </CharString>
          <CharString index="117">
            157 callsubr
            70 -110 rlineto
            73 hlineto
            endchar
          </CharString>
          <CharString index="118">
            70 rlineto
            99 callsubr
            -71 109 rlineto
            -72 hlineto
            endchar
          </CharString>
          <CharString index="119">
            rmoveto
            20 callgsubr
            return
          </CharString>
          <CharString index="120">
            40 46 59 14 hvcurveto
            -44 hlineto
            -33 return
          </CharString>
          <CharString index="121">
            -90 hlineto
            -356 -656 rlineto
            86 hlineto
            105 205 67 callgsubr
            return
          </CharString>
          <CharString index="122">
            20 61 rlineto
            3 hlineto
            -44 23 42 -29 52 hhcurveto
            134 128 147 187 114 -55 62 -85 -60 -57 -33 -39 -48 hvcurveto
            -2 hlineto
            22 96 39 190 -46 callgsubr
            return
          </CharString>
          <CharString index="123">
            hlineto
            128 110 rlineto
            -87 hlineto
            endchar
          </CharString>
          <CharString index="124">
            107 vstem
            -103 callsubr
            return
          </CharString>
          <CharString index="125">
            11 28 hhcurveto
            38 -2 callsubr
            return
          </CharString>
          <CharString index="126">
            35 10 -45 51 hhcurveto
            35 35 108 callsubr
            return
          </CharString>
          <CharString index="127">
            13 callsubr
            -12 -16 -20 -21 return
          </CharString>
          <CharString index="128">
            -70 rlineto
            -3 hlineto
            -51 157 callsubr
            return
          </CharString>
          <CharString index="129">
            -205 0 66 525 65 return
          </CharString>
          <CharString index="130">
            87 -23 callsubr
            return
          </CharString>
          <CharString index="131">
            -49 callsubr
            endchar
          </CharString>
          <CharString index="132">
            35 callsubr
            26 return
          </CharString>
          <CharString index="133">
            -23 -26 -29 -25 17 -15 23 hvcurveto
            return
          </CharString>
          <CharString index="134">
            99 -78 -21 560 96 0 -20 return
          </CharString>
          <CharString index="135">
            rlineto
            -59 hlineto
            hintmask 11010000
            -37 -23 -46 -15 -58 -8 rrcurveto
            hintmask 10110000
            -10 -50 rlineto
            114 hlineto
            return
          </CharString>
          <CharString index="136">
            92 callgsubr
            hvcurveto
            endchar
          </CharString>
          <CharString index="137">
            vstem
            200 -12 rmoveto
            142 120 204 239 124 -56 95 -100 -142 -122 -207 -238 -125 57 -92 101 hvcurveto
            101 600 rmoveto
            return
          </CharString>
          <CharString index="138">
            vhcurveto
            -17 42 rlineto
            -8 -13 -10 -3 -13 158 callsubr
            24 return
          </CharString>
          <CharString index="139">
            26 28 26 -17 15 -23 return
          </CharString>
          <CharString index="140">
            rmoveto
            64 hlineto
            29 126 44 110 123 120 5 34 rcurveline
            -262 hlineto
            -10 -51 rlineto
            193 hlineto
            -98 -104 -56 -106 -32 -129 rrcurveto
            endchar
          </CharString>
          <CharString index="141">
            rmoveto
            56 hlineto
            69 73 callgsubr
            -57 hlineto
            return
          </CharString>
          <CharString index="142">
            -31 -27 116 callsubr
            return
          </CharString>
          <CharString index="143">
            rmoveto
            104 120 45 97 136 vvcurveto
            70 -17 67 -26 55 vhcurveto
            -43 -21 rlineto
            21 -48 8 -69 -54 vvcurveto
            -117 -41 -105 -90 -110 vhcurveto
            endchar
          </CharString>
          <CharString index="144">
            rmoveto
            104 120 45 97 136 vvcurveto
            70 -16 67 -26 55 vhcurveto
            -44 -21 rlineto
            21 -48 8 -69 -54 vvcurveto
            -117 -41 -105 -89 -110 vhcurveto
            endchar
          </CharString>
          <CharString index="145">
            rmoveto
            60 hlineto
            73 127 callsubr
            58 hlineto
            -70 104 rlineto
            -66 hlineto
            return
          </CharString>
          <CharString index="146">
            99 callsubr
            -70 101 callgsubr
            return
          </CharString>
          <CharString index="147">
            29 90 callsubr
            -36 -34 return
          </CharString>
          <CharString index="148">
            17 -25 -31 -27 -25 -33 return
          </CharString>
          <CharString index="149">
            118 204 -41 callsubr
            -32 -112 -28 -140 rlineto
            55 hlineto
            61 310 rlineto
            -69 hlineto
            -71 -115 -40 -81 -9 callsubr
            -11 81 return
          </CharString>
          <CharString index="150">
            -37 -38 callgsubr
            61 -28 -21 250 51 135 62 return
          </CharString>
          <CharString index="151">
            155 11 57 rlineto
            -54 hlineto
            -40 -212 rlineto
            endchar
          </CharString>
          <CharString index="152">
            -81 -209 62 633 -20 return
          </CharString>
          <CharString index="153">
            rmoveto
            57 82 callsubr
            -33 28 -85 3 vhcurveto
            endchar
          </CharString>
          <CharString index="154">
            -36 -13 -31 -30 -44 hhcurveto
            -42 -20 28 38 2 hvcurveto
            return
          </CharString>
          <CharString index="155">
            -58 -45 -65 -31 18 -25 22 -20 vhcurveto
            -1 -4 rlineto
            return
          </CharString>
          <CharString index="156">
            -9 -22 vvcurveto
            -32 -38 -16 return
          </CharString>
          <CharString index="157">
            rmoveto
            -68 hlineto
            -106 -101 rlineto
            59 hlineto
            73 62 -41 callsubr
            52 -62 rlineto
            51 hlineto
            56 callgsubr
            return
          </CharString>
          <CharString index="158">
            -25 -33 29 callsubr
          </CharString>
          <CharString index="159">
            31 13 62 callgsubr
            return
          </CharString>
          <CharString index="160">
            -42 -35 -42 -60 -17 hvcurveto
            endchar
          </CharString>
          <CharString index="161">
            34 18 -50 45 hhcurveto
            41 35 39 55 14 hvcurveto
            return
          </CharString>
          <CharString index="162">
            -58 vhcurveto
            39 -48 rlineto
            41 45 43 23 43 hhcurveto
            return
          </CharString>
          <CharString index="163">
            48 -92 rlineto
            52 77 callsubr
            -57 hlineto
            return
          </CharString>
          <CharString index="164">
            34 22 callgsubr
            -12 return
          </CharString>
          <CharString index="165">
            227 0 82 473 101 0 -20 return
          </CharString>
          <CharString index="166">
            36 53 16 hvcurveto
            -39 hlineto
            -26 return
          </CharString>
          <CharString index="167">
            -56 -46 -58 -29 -46 hhcurveto
            return
          </CharString>
          <CharString index="168">
            hstemhm
            79 callsubr
            return
          </CharString>
          <CharString index="169">
            hlineto
            66 -141 rlineto
            return
          </CharString>
          <CharString index="170">
            -21 656 -20 return
          </CharString>
          <CharString index="171">
            -16 139 callsubr
          </CharString>
          <CharString index="172">
            146 callgsubr
            -13 -27 -32 -42 hhcurveto
            -44 return
          </CharString>
          <CharString index="173">
            54 0 callgsubr
            return
          </CharString>
          <CharString index="174">
            -45 33 -24 45 23 31 9 14 22 121 callgsubr
            return
          </CharString>
          <CharString index="175">
            28 50 65 81 vvcurveto
            88 -60 58 -107 -61 -61 -22 -41 -54 vhcurveto
            39 -51 rlineto
            31 38 48 20 39 hhcurveto
            return
          </CharString>
          <CharString index="176">
            -45 -65 -31 17 -25 22 -20 vhcurveto
            -4 vlineto
            return
          </CharString>
          <CharString index="177">
            31 12 16 20 16 43 8 -53 58 hhcurveto
            return
          </CharString>
          <CharString index="178">
            vstem
            143 67 rmoveto
            35 22 -85 161 142 156 -28 29 -156 -148 -11 -62 rlineto
            return
          </CharString>
          <CharString index="179">
            -19 -205 103 123 -21 205 60 326 65 return
          </CharString>
          <CharString index="180">
            rmoveto
            60 hlineto
            74 64 -41 callsubr
            return
          </CharString>
          <CharString index="181">
            104 -12 67 546 36 -36 67 return
          </CharString>
          <CharString index="182">
            hlineto
            -61 -8 22 -64 80 hhcurveto
            return
          </CharString>
          <CharString index="183">
            hlineto
            -54 -5 27 -56 73 hhcurveto
            return
          </CharString>
          <CharString index="184">
            hlineto
            -66 141 rlineto
            return
          </CharString>
          <CharString index="185">
            -40 -46 -59 -14 hvcurveto
            return
          </CharString>
          <CharString index="186">
            60 79 388 79 return
          </CharString>
          <CharString index="187">
            rmoveto
            60 hlineto
            77 390 rlineto
            -47 hlineto
            -31 -21 -26 -10 -53 -8 -7 -39 rcurveline
            89 hlineto
            endchar
          </CharString>
          <CharString index="188">
            -29 callsubr
            endchar
          </CharString>
          <CharString index="189">
            150 callgsubr
            -36 rlineto
            69 15 53 28 61 vvcurveto
            37 return
          </CharString>
          <CharString index="190">
            -12 50 220 50 45 50 220 50 hstem
            61 59 187 59 81 59 187 59 return
          </CharString>
          <CharString index="191">
            715 90 32 109 hstem
            -36 86 79 86 vstem
            return
          </CharString>
          <CharString index="192">
            -12 22 22 -7 31 hhcurveto
            84 41 63 93 19 hvcurveto
            return
          </CharString>
          <CharString index="193">
            -35 rlineto
            69 14 54 29 60 vvcurveto
            37 return
          </CharString>
          <CharString index="194">
            56 266 rmoveto
            57 hlineto
            return
          </CharString>
          <CharString index="195">
            25 26 23 -16 16 -21 return
          </CharString>
          <CharString index="196">
            571 141 hstem
            return
          </CharString>
          <CharString index="197">
            -17 22 -29 -38 -29 return
          </CharString>
          <CharString index="198">
            66 213 65 return
          </CharString>
          <CharString index="199">
            50 -50 96 hstemhm
            26 358 hintmask 10110000
            26 hmoveto
            346 hlineto
            12 64 rlineto
            -130 hlineto
            return
          </CharString>
          <CharString index="200">
            706 rmoveto
            114 110 rlineto
            -66 hlineto
            -78 21 callsubr
            return
          </CharString>
          <CharString index="201">
            144 callsubr
            -88 hlineto
            endchar
          </CharString>
          <CharString index="202">
            -206 265 45 110 39 97 47 40 94 hstem
            60 57 172 50 vstem
            return
          </CharString>
          <CharString index="203">
            rmoveto
            55 hlineto
            70 73 callgsubr
            -58 hlineto
            return
          </CharString>
          <CharString index="204">
            -127 -12 59 391 60 return
          </CharString>
          <CharString index="205">
            178 0 64 345 77 return
          </CharString>
          <CharString index="206">
            3 hlineto
            51 133 callsubr
            return
          </CharString>
          <CharString index="207">
            172 callsubr
            endchar
          </CharString>
          <CharString index="208">
            112.5 return
          </CharString>
          <CharString index="209">
            -22 -37 -28 -22 -28 -38 -22 vhcurveto
            hintmask 11101000
            40 callgsubr
            return
          </CharString>
          <CharString index="210">
            rmoveto
            41 30 37 38 31 -17 24 -32 -40 -32 -40 -37 -29 19 -24 31 hvcurveto
            return
          </CharString>
          <CharString index="211">
            136 callsubr
            -35 rlineto
            69 14 return
          </CharString>
          <CharString index="212" raw="1">
            8d1d0e   
          </CharString>
          <CharString index="213">
            58 callgsubr
            endchar
          </CharString>
          <CharString index="214">
            49 111 44 161 49 hstem
            return
          </CharString>
          <CharString index="215">
            59 callsubr
            -9 return
          </CharString>
          <CharString index="216">
            -12 61 539 62 hstem
            42 72 return
          </CharString>
          <CharString index="217">
            -13 1 -9 -11 vvcurveto
            -42 return
          </CharString>
          <CharString index="218">
            31 27 24 33 return
          </CharString>
          <CharString index="219">
            hvcurveto
            -41 hlineto
            -34 -15 -36 -30 -44 hhcurveto
            -45 -19 28 36 hvcurveto
            -39 hlineto
            -51 return
          </CharString>
          <CharString index="220">
            122 callgsubr
            endchar
          </CharString>
          <CharString index="221">
            -25 -30 -25 17 -15 24 hvcurveto
            166 hmoveto
            return
          </CharString>
          <CharString index="222">
            -291 -217 63 -42 -21 703 -20 return
          </CharString>
          <CharString index="223">
            -25 -33 -22 callsubr
            return
          </CharString>
          <CharString index="224">
            94 42.5 -42.5 45 -45 140 hstemhm
            return
          </CharString>
          <CharString index="225">
            117 callgsubr
            -3 -14 -5 -26 hvcurveto
            -60 -300 rlineto
            76 hlineto
            return
          </CharString>
          <CharString index="226">
            165 -80 109 -147 -188 -131 -205 -200 return
          </CharString>
          <CharString index="227">
            -48 -38 callgsubr
            61 178 52 158 61 return
          </CharString>
          <CharString index="228">
            121 -25 callgsubr
            return
          </CharString>
          <CharString index="229">
            34 -18 hvcurveto
            28 144 rlineto
            34 31 36 18 32 hhcurveto
            endchar
          </CharString>
          <CharString index="230">
            26 21 60 callgsubr
            return
          </CharString>
          <CharString index="231">
            154 callsubr
            -25 -33 vhcurveto
            return
          </CharString>
          <CharString index="232">
            -20 callsubr
            -43 -13 vhcurveto
            return
          </CharString>
          <CharString index="233">
            26 22 23 28 23 -15 14 return
          </CharString>
          <CharString index="234">
            64 -41 callsubr
            49 -64 rlineto
            return
          </CharString>
          <CharString index="235">
            rmoveto
            -63 hlineto
            63 -114 rlineto
            return
          </CharString>
          <CharString index="236">
            49 172 44 86 51 hstem
            return
          </CharString>
          <CharString index="237">
            -67 0 66 590 -20 return
          </CharString>
          <CharString index="238" raw="1">
            716b750a 0b  
          </CharString>
          <CharString index="239">
            -84 -91 -9 callsubr
            return
          </CharString>
          <CharString index="240">
            -70 rlineto
            59 hlineto
            return
          </CharString>
          <CharString index="241">
            -15 -46 vvcurveto
            -44 -40 -28 -44 -37 -31 26 41 vhcurveto
            hintmask 11101010
            return
          </CharString>
          <CharString index="242">
            -164 53 99 177 callsubr
            return
          </CharString>
          <CharString index="243">
            12 callsubr
            7 return
          </CharString>
          <CharString index="244">
            10 50 rcurveline
            -394 hlineto
            -14 -66 rlineto
            306 hlineto
            -162 return
          </CharString>
          <CharString index="245">
            -230 222 59 hstem
            35 231 vstem
            35 222 rmoveto
            return
          </CharString>
          <CharString index="246">
            33 46 4 hvcurveto
            -45 75 callsubr
            endchar
          </CharString>
          <CharString index="247">
            -40 -56 -61 -51 -71 -158 hvcurveto
            -12 -58 rlineto
            hintmask 11110000
            return
          </CharString>
          <CharString index="248">
            61 256 57 221 61 hstemhm
            442 76 -53 79 return
          </CharString>
          <CharString index="249">
            104 -205 103 90 67 546 return
          </CharString>
          <CharString index="250">
            -24 -25 -30 -25 17 -15 24 hvcurveto
            return
          </CharString>
          <CharString index="251">
            rmoveto
            66 hlineto
            128 110 rlineto
            return
          </CharString>
          <CharString index="252">
            28 23 23 30 26 -17 16 -24 return
          </CharString>
          <CharString index="253">
            -29 26 -74 1 vhcurveto
            endchar
          </CharString>
          <CharString index="254">
            84 92 -41 callsubr
            return
          </CharString>
          <CharString index="255">
            37 74 271 65 return
          </CharString>
          <CharString index="256">
            27 callsubr
            hstemhm
            35 579 return
          </CharString>
          <CharString index="257">
            60 callgsubr
            hstem
            474 77 vstem
            return
          </CharString>
          <CharString index="258">
            181 rmoveto
            64 hlineto
            127 109 rlineto
            -85 hlineto
            return
          </CharString>
          <CharString index="259">
            161 callsubr
            102 return
          </CharString>
          <CharString index="260">
            98 56 -27 54 hintmask 11101000
            return
          </CharString>
          <CharString index="261">
            132 callgsubr
            -26 return
          </CharString>
          <CharString index="262">
            73 141 -49 49 hstemhm
            return
          </CharString>
          <CharString index="263">
            424 62 176 62 return
          </CharString>
          <CharString index="264">
            70 rlineto
            -59 hlineto
            return
          </CharString>
          <CharString index="265">
            hhcurveto
            -20 -16 14 return
          </CharString>
          <CharString index="266">
            -205 103 90 67 601 -20 hstemhm
            79 78 return
          </CharString>
          <CharString index="267">
            -12 61 210 130 199 62 hstem
            42 return
          </CharString>
          <CharString index="268">
            -187 21 75 callgsubr
            return
          </CharString>
          <CharString index="269">
            hlineto
            -34 -26 -55 -58 -58 vvcurveto
            -45 32 -24 44 return
          </CharString>
          <CharString index="270">
            29 28 -22 22 -29 -29 -22 -22 -28 -29 22 return
          </CharString>
          <CharString index="271">
            hlineto
            58 185 rlineto
            -51 hlineto
            -59 -185 rlineto
            return
          </CharString>
          <CharString index="272">
            -5 15 125 callsubr
            return
          </CharString>
          <CharString index="273">
            -196 258 46 126 38 81 47 hstem
            return
          </CharString>
          <CharString index="274">
            45 44 55 54 -38 25 -46 return
          </CharString>
          <CharString index="275">
            hstemhm
            44 101 callsubr
            return
          </CharString>
          <CharString index="276">
            23 callsubr
            70 return
          </CharString>
          <CharString index="277">
            130 callsubr
            hstem
            return
          </CharString>
          <CharString index="278">
            -38 -12 -28 -39 vhcurveto
            return
          </CharString>
          <CharString index="279">
            -27 25 35 -19 hvcurveto
            return
          </CharString>
          <CharString index="280">
            vstem
            57 253 rmoveto
            return
          </CharString>
          <CharString index="281">
            46 59 30 45 hhcurveto
            return
          </CharString>
          <CharString index="282">
            14 -11 -22 vvcurveto
            return
          </CharString>
          <CharString index="283">
            238 rmoveto
            177 212 rlineto
            hintmask 11101000
            return
          </CharString>
          <CharString index="284">
            -56 callgsubr
            214 -20 hstemhm
            return
          </CharString>
          <CharString index="285">
            97 53 -45 -66 -102 -79 -43 -125 hvcurveto
            return
          </CharString>
          <CharString index="286">
            -152 45 360 50 360 45 hstemhm
            return
          </CharString>
          <CharString index="287">
            -112 rlineto
            44 hlineto
            endchar
          </CharString>
          <CharString index="288">
            -92 rlineto
            52 hlineto
            return
          </CharString>
          <CharString index="289">
            -29 18 -21 29 return
          </CharString>
        <CharString name=".notdef">
          99 0 56 548 56 hstem
          36 586 vstem
          36 hmoveto
          456 hlineto
          130 660 rlineto
          -456 hlineto
          123 -320 rmoveto
          -169 -235 94 470 rlineto
          161 -235 rmoveto
          171 235 -96 -470 rlineto
          -201 87 rmoveto
          71 101 -41 callsubr
          31 -101 44 -136 rlineto
          -249 hlineto
          192 328 rmoveto
          -4 hlineto
          -28 93 -40 127 rlineto
          229 hlineto
          -90 -127 rlineto
          endchar
        </CharString>
        <CharString name="A">
          -78 callgsubr
          hstem
          -53 522 vstem
          169 265 -83 callgsubr
        </CharString>
        <CharString name="AE">
          274 0 66 128 62 56 91 callsubr
          -59 59 hstemhm
          -33 861 hintmask 11110100
          397 256 rmoveto
          -168 hlineto
          84 124 rlineto
          hintmask 11101100
          50 73 49 70 50 74 rrcurveto
          3 hlineto
          hintmask 11110100
          349 -6 rmoveto
          14 65 rlineto
          -402 hlineto
          -459 -656 rlineto
          89 hlineto
          131 194 rlineto
          198 hlineto
          -39 -194 rlineto
          359 hlineto
          13 66 rlineto
          -282 hlineto
          51 246 rlineto
          228 hlineto
          13 66 rlineto
          -229 hlineto
          42 213 rlineto
          endchar
        </CharString>
        <CharString name="Aacute">
          -78 callgsubr
          50 110 hstem
          -53 541 vstem
          488 816 rmoveto
          -87 hlineto
          -106 -110 rlineto
          65 hlineto
          -191 -441 -104 callsubr
          endchar
        </CharString>
        <CharString name="Abreve">
          -78 callgsubr
          50 45 hstem
          249 45 vstem
          434 816 rmoveto
          -33 -12 -28 -32 -42 -1 callsubr
          77 42 54 56 18 hvcurveto
          -312 -551 -104 callsubr
          endchar
        </CharString>
        <CharString name="Acircumflex">
          -78 callgsubr
          50 109 hstem
          -53 525 vstem
          359 776 rmoveto
          39 callsubr
          -114 -109 rlineto
          66 hlineto
          -112 -441 -104 callsubr
          endchar
        </CharString>
        <CharString name="Adieresis">
          -78 callgsubr
          59 95 hstem
          227 91 75 91 vstem
          433 715 rmoveto
          8 callgsubr
          -166 hmoveto
          28 23 23 callgsubr
          26 callsubr
          -98 -450 -104 callsubr
          endchar
        </CharString>
        <CharString name="Agrave">
          -78 callgsubr
          50 110 hstem
          -53 522 vstem
          391 706 rmoveto
          -68 91 callgsubr
          89 -110 rlineto
          -162 -441 -83 callgsubr
        </CharString>
        <CharString name="Amacron">
          -78 callgsubr
          73 54 hstem
          -53 530 vstem
          477 783 rmoveto
          -235 hlineto
          -11 -54 rlineto
          235 hlineto
          -297 -464 -104 callsubr
          endchar
        </CharString>
        <CharString name="Aogonek">
          -19 -211 54 178 -21 205 60 326 65 hstem
          306 65 vstem
          169 265 rmoveto
          58 112 37 72 33 66 35 76 rlinecurve
          4 hlineto
          5 -75 7 -70 6 -69 10 -112 rcurveline
          29 391 rmoveto
          14 callsubr
          18 -205 rlineto
          13 hlineto
          -43 -30 -52 -55 -57 vvcurveto
          67 callsubr
          34 44 64 36 hvcurveto
          endchar
        </CharString>
        <CharString name="Aring">
          -78 callgsubr
          41 36 106 36 hstem
          267 44 96 43 vstem
          364 839 143 callgsubr
          -29 -27 -15 19 28 33 24 26 29 hvcurveto
          -13 -142 rmoveto
          54 167 callsubr
          -53 -46 -44 -55 -54 38 -25 46 hvcurveto
          -182 -432 -83 callgsubr
        </CharString>
        <CharString name="Atilde">
          -78 callgsubr
          53 158 callgsubr
          -53 555 hintmask 11110100
          458 814 rmoveto
          -33 -12 -16 -20 -21 -39 -15 55 -50 hhcurveto
          hintmask 11101100
          -45 78 callsubr
          44 hlineto
          -7 callsubr
          hintmask 11110100
          45 40 46 59 14 hvcurveto
          -333 -549 -104 callsubr
          endchar
        </CharString>
        <CharString name="B">
          54 0 141 callsubr
          hintmask 11110000
          84 callgsubr
          hintmask 11101000
          4 callgsubr
          hintmask 11110000
          178 callsubr
          endchar
        </CharString>
        <CharString name="C">
          21 -12 67 546 67 hstem
          57 80 -93 callgsubr
          endchar
        </CharString>
        <CharString name="Cacute">
          21 -12 67 546 67 38 110 hstem
          57 80 -93 callgsubr
          303 453 rmoveto
          65 16 callsubr
        </CharString>
        <CharString name="Ccaron">
          21 -12 67 546 67 38 110 hstem
          57 80 -93 callgsubr
          503 563 rmoveto
          -66 hlineto
          -78 -10 callsubr
        </CharString>
        <CharString name="Ccedilla">
          21 -9 64 -43 -21 610 67 hstemhm
          57 80 119 60 hintmask 01111000
          557 571 rmoveto
          56 -32 -54 41 -75 hhcurveto
          -203 -136 -209 -206 -142 68 -102 125 -18 hvcurveto
          -46 -66 rlineto
          38 -85 callsubr
          -20 17 -25 9 vhcurveto
          hintmask 10111000
          28 41 75 3 58 33 46 40 rlinecurve
          -35 50 rlineto
          -36 -43 -43 -23 -53 hhcurveto
          -118 -49 86 119 159 99 182 156 50 35 -29 -42 26 hvcurveto
          endchar
        </CharString>
        <CharString name="Ccircumflex">
          21 -12 67 546 67 38 109 hstem
          57 80 -93 callgsubr
          223 453 rmoveto
          66 hlineto
          78 11 callsubr
        </CharString>
        <CharString name="Cdotaccent">
          21 -12 67 546 67 48 103 hstem
          57 80 231 106 -93 callgsubr
          359 463 -4 callsubr
          -26 -32 29 callsubr
        </CharString>
        <CharString name="D">
          63 0 64 529 63 hstem
          487 -82 callgsubr
          endchar
        </CharString>
        <CharString name="Dcaron">
          63 0 64 529 63 50 110 hstem
          487 -82 callgsubr
          311 752 rmoveto
          -65 hlineto
          -78 -70 -9 callsubr
          -50 10 callsubr
        </CharString>
        <CharString name="Dcroat">
          -50 callgsubr
        </CharString>
        <CharString name="E">
          -66 callgsubr
          -86 callsubr
          endchar
        </CharString>
        <CharString name="Eacute">
          -66 callgsubr
          50 110 -86 callsubr
          140 50 94 callsubr
        </CharString>
        <CharString name="Ebreve">
          -66 callgsubr
          50 45 hstem
          260 45 vstem
          -103 callsubr
          189 50 rmoveto
          78 42 54 56 17 hvcurveto
          -46 hlineto
          -33 -13 -27 -32 -43 -1 callsubr
          endchar
        </CharString>
        <CharString name="Ecaron">
          -66 callgsubr
          50 110 -86 callsubr
          340 160 rmoveto
          -65 hlineto
          -78 -70 -9 callsubr
          -50 10 callsubr
        </CharString>
        <CharString name="Ecircumflex">
          -66 callgsubr
          50 109 -86 callsubr
          61 50 24 callgsubr
        </CharString>
        <CharString name="Edieresis">
          -66 callgsubr
          59 95 hstem
          239 90 76 90 vstem
          -103 callsubr
          113 59 rmoveto
          28 22 -65 callsubr
        </CharString>
        <CharString name="Edotaccent">
          -66 callgsubr
          60 103 hstem
          314 17 callsubr
          197 60 -64 callgsubr
        </CharString>
        <CharString name="Egrave">
          -66 callgsubr
          50 110 -86 callsubr
          176 50 rmoveto
          61 hlineto
          -69 91 callgsubr
          endchar
        </CharString>
        <CharString name="Emacron">
          -66 callgsubr
          73 54 -86 callsubr
          76 73 -20 callgsubr
        </CharString>
        <CharString name="Eogonek">
          -26 -211 54 157 -48 callgsubr
          hstem
          228 65 vstem
          35 hmoveto
          287 hlineto
          -38 -26 -56 -58 -58 vvcurveto
          -45 33 -24 45 24 30 9 14 22 vhcurveto
          -17 42 rlineto
          -8 -13 -10 -3 -12 hhcurveto
          -21 -16 14 24 42 51 70 61 7 hvcurveto
          14 66 rlineto
          -294 hlineto
          51 246 rlineto
          239 -27 callgsubr
          -241 hlineto
          42 213 rlineto
          285 hlineto
          13 65 rlineto
          -362 hlineto
          endchar
        </CharString>
        <CharString name="Eth">
          -50 callgsubr
        </CharString>
        <CharString name="Euro">
          -49 -12 64 188 45 70 44 191 63 hstem
          82 77 vstem
          520 557 rmoveto
          53 -28 -42 43 -73 hhcurveto
          -119 -108 -102 -153 -45 hvcurveto
          -53 -3 -9 -40 rlineto
          51 hlineto
          -5 -23 -3 -23 -2 -25 -54 -4 rcurveline
          -10 -40 rlineto
          62 hlineto
          -163 73 -89 116 66 56 28 46 49 vhcurveto
          -38 47 rlineto
          -32 -33 -39 -25 -47 hhcurveto
          -78 -48 67 121 hvcurveto
          202 hlineto
          10 45 rlineto
          -210 hlineto
          2 24 3 24 5 22 rrcurveto
          252 hlineto
          9 44 rlineto
          -250 hlineto
          112 35 70 79 83 hhcurveto
          47 25 -29 -41 20 hvcurveto
          endchar
        </CharString>
        <CharString name="F">
          -56 21 -21 297 66 228 65 hstem
          35 493 102 callgsubr
          60 297 rlineto
          240 hlineto
          13 66 rlineto
          -241 hlineto
          45 228 rlineto
          285 hlineto
          13 65 rlineto
          -362 hlineto
          endchar
        </CharString>
        <CharString name="G">
          9 callsubr
          hstem
          57 80 vstem
          -102 callgsubr
          endchar
        </CharString>
        <CharString name="Gbreve">
          9 callsubr
          38 45 hstem
          57 80 175 44 vstem
          -102 callgsubr
          350 453 rmoveto
          77 65 callsubr
          -17 30 35 2 hvcurveto
          -44 76 callsubr
          endchar
        </CharString>
        <CharString name="Gcaron">
          9 callsubr
          38 110 hstem
          57 80 vstem
          -102 callgsubr
          501 563 rmoveto
          -66 hlineto
          -78 -70 rlineto
          -3 hlineto
          -51 10 callsubr
        </CharString>
        <CharString name="Gcircumflex">
          9 callsubr
          38 109 hstem
          57 80 vstem
          -102 callgsubr
          221 453 rmoveto
          66 hlineto
          78 11 callsubr
        </CharString>
        <CharString name="Gdotaccent">
          9 callsubr
          48 103 hstem
          57 80 228 107 vstem
          -102 callgsubr
          357 463 -64 callgsubr
        </CharString>
        <CharString name="H">
          93 21 168 callgsubr
          hstem
          35 582 -69 callsubr
          endchar
        </CharString>
        <CharString name="Hbar">
          114 21 -21 312 67 114 44 -44 163 hstemhm
          44 642 hintmask 11101000
          493 379 rmoveto
          -297 hlineto
          23 114 rlineto
          297 hlineto
          170 44 rmoveto
          -84 134 callgsubr
          rlineto
          -295 134 callgsubr
          -66 -3 -9 -41 rlineto
          66 hlineto
          -98 -493 rlineto
          78 hlineto
          62 312 rlineto
          296 hlineto
          -63 -312 rlineto
          78 hlineto
          98 493 rlineto
          84 hlineto
          endchar
        </CharString>
        <CharString name="Hcircumflex">
          93 21 168 callgsubr
          70 109 hstem
          35 582 -69 callsubr
          92 50 rmoveto
          65 hlineto
          79 70 rlineto
          3 hlineto
          50 -70 rlineto
          60 hlineto
          -71 101 callgsubr
          endchar
        </CharString>
        <CharString name="I">
          -277 -12 callsubr
          hstem
          35 209 -61 callgsubr
          endchar
        </CharString>
        <CharString name="I.a">
          22 callsubr
          hstem
          -7 370 vstem
          -96 callsubr
          endchar
        </CharString>
        <CharString name="Iacute">
          -277 -12 callsubr
          70 110 hstem
          35 315 -61 callgsubr
          -10 50 rmoveto
          66 16 callsubr
        </CharString>
        <CharString name="Iacute.a">
          85 callgsubr
          392 vstem
          -96 callsubr
          184 640 94 callsubr
        </CharString>
        <CharString name="Icircumflex">
          -277 -12 callsubr
          70 109 hstem
          35 299 -61 callgsubr
          -89 50 rmoveto
          65 hlineto
          79 11 callsubr
        </CharString>
        <CharString name="Icircumflex.a">
          85 callgsubr
          375 vstem
          -96 callsubr
          105 640 -47 callgsubr
          110 rlineto
          -73 hlineto
          endchar
        </CharString>
        <CharString name="Idieresis">
          -277 -12 callsubr
          79 95 hstem
          89 91 75 90 -61 callgsubr
          -37 59 rmoveto
          8 callgsubr
          166 hmoveto
          28 22 32 callsubr
          -27 26 callsubr
          endchar
        </CharString>
        <CharString name="Idieresis.a">
          22 callsubr
          59 95 hstem
          124 90 76 90 vstem
          -96 callsubr
          157 649 rmoveto
          28 22 32 callsubr
          -27 26 callsubr
          166 hmoveto
          28 22 -65 callgsubr
          endchar
        </CharString>
        <CharString name="Idotaccent">
          -277 -12 callsubr
          80 103 hstem
          164 107 -61 callgsubr
          47 60 -64 callgsubr
        </CharString>
        <CharString name="Idotaccent.a">
          22 callsubr
          60 103 hstem
          199 107 vstem
          -96 callsubr
          241 650 -64 callgsubr
        </CharString>
        <CharString name="Igrave">
          -277 -12 callsubr
          70 110 hstem
          35 218 -61 callgsubr
          26 50 rmoveto
          61 hlineto
          -69 91 callgsubr
          endchar
        </CharString>
        <CharString name="Igrave.a">
          85 callgsubr
          370 vstem
          -96 callsubr
          220 640 rmoveto
          61 hlineto
          -69 91 callgsubr
          endchar
        </CharString>
        <CharString name="Imacron">
          -277 -12 callsubr
          93 54 hstem
          35 304 -61 callgsubr
          -74 73 -20 callgsubr
        </CharString>
        <CharString name="Imacron.a">
          22 callsubr
          73 54 hstem
          -7 381 vstem
          -96 callsubr
          120 663 -20 callgsubr
        </CharString>
        <CharString name="Iogonek">
          -277 -211 54 178 63 callsubr
          hstem
          -39 65 vstem
          26 -119 rmoveto
          39 36 49 51 31 vhcurveto
          131 656 -19 callsubr
          -131 -656 rlineto
          15 162 callsubr
          23 34 10 15 21 vhcurveto
          -18 40 rlineto
          -8 -12 -10 -3 -13 158 callsubr
          24 hvcurveto
          endchar
        </CharString>
        <CharString name="Iogonek.a">
          -205 -211 54 157 66 525 65 hstem
          -1 64 vstem
          -7 hmoveto
          95 162 callsubr
          22 34 10 15 22 vhcurveto
          -18 40 rlineto
          -8 -12 -10 -3 -13 hhcurveto
          -21 -16 14 24 39 37 49 50 31 hvcurveto
          80 -27 callgsubr
          -81 hlineto
          105 525 rlineto
          81 hlineto
          14 65 rlineto
          -238 hlineto
          -14 -65 rlineto
          80 hlineto
          -106 -525 -19 callsubr
          endchar
        </CharString>
        <CharString name="Itilde">
          -277 -12 callsubr
          73 158 callgsubr
          35 329 hintmask 11011000
          35 hmoveto
          -11 callgsubr
          -78 hlineto
          -54 55 rmoveto
          -7 callsubr
          hintmask 11101000
          13 callgsubr
          -40 -14 55 -51 hhcurveto
          hintmask 11011000
          -44 78 callsubr
          endchar
        </CharString>
        <CharString name="Itilde.a">
          22 callsubr
          53 158 callgsubr
          -7 405 hintmask 11011000
          -96 callsubr
          140 645 rmoveto
          33 11 34 callgsubr
          -11 -17 -20 -21 -39 -15 55 -50 hhcurveto
          hintmask 11011000
          -44 -41 -46 -59 -14 hvcurveto
          endchar
        </CharString>
        <CharString name="J">
          -73 -23 callsubr
          hstem
          -2 458 6 callsubr
          endchar
        </CharString>
        <CharString name="Jcircumflex">
          -73 -23 callsubr
          70 109 hstem
          -2 547 6 callsubr
          -74 522 rmoveto
          66 hlineto
          78 11 callsubr
        </CharString>
        <CharString name="K">
          30 -12 callsubr
          hstem
          35 564 -46 callsubr
          endchar
        </CharString>
        <CharString name="L">
          170 callsubr
          35 367 vstem
          -71 callgsubr
          endchar
        </CharString>
        <CharString name="Lacute">
          130 callsubr
          70 110 hstem
          35 367 vstem
          -71 callgsubr
          -3 142 callgsubr
        </CharString>
        <CharString name="Lcaron">
          170 callsubr
          35 429 vstem
          -71 callgsubr
          242 -144 rmoveto
          45 44 callsubr
        </CharString>
        <CharString name="Ldot">
          130 callsubr
          hstemhm
          35 397 -113 113 hintmask 11100000
          -71 callgsubr
          hintmask 11010000
          200 -388 31 callgsubr
        </CharString>
        <CharString name="Lslash">
          170 callsubr
          -4 406 vstem
          126 66 rmoveto
          42 209 200 97 13 69 -200 -98 63 313 -19 callsubr
          -70 -352 -87 -42 -13 -69 86 42 -47 -235 rlineto
          354 hlineto
          13 66 rlineto
          endchar
        </CharString>
        <CharString name="M">
          176 21 -21 69 97 397 93 hstem
          35 665 -37 callgsubr
          endchar
        </CharString>
        <CharString name="N">
          90 0 149 callsubr
          hintmask 01011000
          35 hmoveto
          75 hlineto
          70 353 rlineto
          hintmask 01101000
          -90 callgsubr
          hintmask 10011000
          -74 callgsubr
          endchar
        </CharString>
        <CharString name="Nacute">
          45 callgsubr
          70 110 hstemhm
          35 579 -77 callgsubr
          181 50 rmoveto
          65 16 callsubr
        </CharString>
        <CharString name="Ncaron">
          45 callgsubr
          70 110 hstemhm
          35 579 -77 callgsubr
          381 160 rmoveto
          -66 hlineto
          -78 -10 callsubr
        </CharString>
        <CharString name="Ntilde">
          45 callgsubr
          73 158 callgsubr
          35 579 hintmask 01010110
          35 hmoveto
          75 hlineto
          70 353 rlineto
          hintmask 01100110
          -90 callgsubr
          hintmask 10010110
          -74 callgsubr
          136 55 rmoveto
          -7 callsubr
          hintmask 01011010
          13 callgsubr
          -39 -15 55 -50 hhcurveto
          hintmask 01010110
          -45 78 callsubr
          endchar
        </CharString>
        <CharString name="O">
          -19 callgsubr
          -98 callgsubr
          endchar
        </CharString>
        <CharString name="OE">
          287 0 -48 callgsubr
          hstem
          60 79 vstem
          60 256 rmoveto
          -161 96 -95 182 vhcurveto
          380 -27 callgsubr
          -276 hlineto
          51 246 rlineto
          221 -27 callgsubr
          -223 hlineto
          43 213 rlineto
          265 hlineto
          14 65 rlineto
          -426 hlineto
          -222 -133 -161 -239 hvcurveto
          426 337 rmoveto
          -106 -529 rlineto
          -39 hlineto
          -132 -70 73 124 196 106 136 170 hvcurveto
          endchar
        </CharString>
        <CharString name="Oacute">
          -19 callgsubr
          38 110 -98 callgsubr
          -21 105 rmoveto
          65 16 callsubr
        </CharString>
        <CharString name="Ocircumflex">
          -19 callgsubr
          38 109 -98 callgsubr
          -100 105 rmoveto
          65 hlineto
          78 70 rlineto
          39 callsubr
          endchar
        </CharString>
        <CharString name="Odieresis">
          -19 callgsubr
          47 95 hstemhm
          60 79 148 90 75 91 -16 79 hintmask 11111010
          -106 callgsubr
          -48 114 rmoveto
          -15 callgsubr
          hintmask 11111100
          165 hmoveto
          8 callgsubr
          endchar
        </CharString>
        <CharString name="Ograve">
          -19 callgsubr
          38 110 -98 callgsubr
          15 105 rmoveto
          60 hlineto
          -68 91 callgsubr
          endchar
        </CharString>
        <CharString name="Ohorn">
          74 callsubr
          61 callsubr
          -11 65 hintmask 10111000
          291 55 -76 callgsubr
          hintmask 11010100
          -39 callgsubr
          hintmask 10111000
          -87 callsubr
          hintmask 10110100
          -7 callgsubr
        </CharString>
        <CharString name="Ohungarumlaut">
          -19 callgsubr
          38 111 -98 callgsubr
          -76 105 rmoveto
          55 hlineto
          104 111 rlineto
          -71 hlineto
          61 -111 rmoveto
          55 hlineto
          103 111 rlineto
          -70 hlineto
          endchar
        </CharString>
        <CharString name="Omacron">
          -19 callgsubr
          61 54 -98 callgsubr
          -85 128 rmoveto
          235 hlineto
          11 66 callsubr
          endchar
        </CharString>
        <CharString name="Oslash">
          -19 callgsubr
          hstem
          79 callsubr
          vstem
          516 483 rmoveto
          7 -28 4 -32 -36 vvcurveto
          -153 -95 -179 -141 -54 -38 23 39 -25 vhcurveto
          -23 52 rmoveto
          -8 29 -4 34 37 vvcurveto
          -79 callgsubr
          55 40 -24 -42 25 vhcurveto
          178 117 rmoveto
          -36 35 -89 -95 rlineto
          49 -38 -57 27 -74 hhcurveto
          -188 -131 -205 -200 -61 11 -53 21 -43 hvcurveto
          -95 -101 40 -35 84 90 rlineto
          -46 38 56 -26 72 hhcurveto
          188 131 205 201 59 -10 52 -20 43 hvcurveto
          endchar
        </CharString>
        <CharString name="Otilde">
          -19 callgsubr
          41 52 4 51 61 callsubr
          hintmask 11011100
          -106 callgsubr
          -66 110 rmoveto
          -7 callsubr
          hintmask 11101100
          13 callgsubr
          -39 -15 55 -50 hhcurveto
          hintmask 11011100
          -45 78 callsubr
          endchar
        </CharString>
        <CharString name="P">
          21 21 -21 264 63 267 62 hstem
          480 77 102 callgsubr
          52 264 rlineto
          105 hlineto
          167 120 71 161 114 -83 46 -123 hvcurveto
          -185 hlineto
          12 -329 rmoveto
          53 267 rlineto
          101 hlineto
          96 52 -32 -76 -105 -72 -54 -135 hvcurveto
          endchar
        </CharString>
        <CharString name="Q">
          104 -162 65 86 66 546 67 hstem
          79 callsubr
          vstem
          139 269 rmoveto
          -79 callgsubr
          104 48 -85 -129 -153 -95 -179 -141 -105 -47 86 128 vhcurveto
          380 -359 rmoveto
          -4 -18 -17 -3 -20 hhcurveto
          -70 -61 28 58 -23 hvcurveto
          175 16 121 196 193 vvcurveto
          119 callsubr
          -143 59 -101 111 -25 vhcurveto
          -107 33 85 -49 111 hhcurveto
          22 22 4 7 21 hvcurveto
          endchar
        </CharString>
        <CharString name="R">
          26 21 150 callsubr
          181 341 -99 callsubr
        </CharString>
        <CharString name="Racute">
          113 callgsubr
          507 816 rmoveto
          -87 hlineto
          -107 -110 rlineto
          66 hlineto
          -198 -365 -99 callsubr
        </CharString>
        <CharString name="Rcaron">
          113 callgsubr
          400 93 callsubr
          70 -110 rlineto
          -146 -365 -99 callsubr
        </CharString>
        <CharString name="S">
          111 callgsubr
          hstem
          120 79 180 80 vstem
          -101 callsubr
          endchar
        </CharString>
        <CharString name="Sacute">
          111 callgsubr
          40 109 hstem
          120 79 180 80 vstem
          -101 callsubr
          228 561 rmoveto
          65 hlineto
          129 109 rlineto
          -88 hlineto
          endchar
        </CharString>
        <CharString name="Scaron">
          111 callgsubr
          40 109 hstem
          120 79 180 80 vstem
          -101 callsubr
          428 670 rmoveto
          -65 hlineto
          -78 -70 -9 callsubr
          -50 157 callsubr
          70 -109 rlineto
          73 hlineto
          endchar
        </CharString>
        <CharString name="Scircumflex">
          111 callgsubr
          40 109 hstem
          120 79 180 80 vstem
          -101 callsubr
          149 561 24 callgsubr
        </CharString>
        <CharString name="T">
          156 callgsubr
          hstem
          93 472 -58 callsubr
          endchar
        </CharString>
        <CharString name="Tcaron">
          156 callgsubr
          50 110 hstem
          93 472 -58 callsubr
          202 227 rmoveto
          -66 hlineto
          -78 -10 callsubr
        </CharString>
        <CharString name="Thorn">
          33 21 -21 152 63 267 63 -63 178 hstemhm
          458 77 hintmask 11011000
          35 hmoveto
          77 hlineto
          30 152 rlineto
          106 hlineto
          167 120 72 161 hvcurveto
          hintmask 11101000
          113 -80 47 -119 vhcurveto
          -115 hlineto
          hintmask 11011000
          23 115 -19 callsubr
          -10 -445 rmoveto
          52 267 rlineto
          105 hlineto
          94 51 -32 -76 -104 -72 -55 -136 hvcurveto
          endchar
        </CharString>
        <CharString name="U">
          23 callsubr
          hstem
          79 78 vstem
          -104 callgsubr
          endchar
        </CharString>
        <CharString name="Uacute">
          169 callsubr
          110 hstem
          79 78 vstem
          -104 callgsubr
          181 142 callgsubr
        </CharString>
        <CharString name="Ubreve">
          169 callsubr
          45 hstem
          79 78 141 45 vstem
          -104 callgsubr
          230 50 rmoveto
          77 43 54 56 17 hvcurveto
          -47 hlineto
          -33 -12 -27 -32 -43 -1 callsubr
          endchar
        </CharString>
        <CharString name="Ucircumflex">
          169 callsubr
          109 hstem
          79 78 vstem
          -104 callgsubr
          102 50 24 callgsubr
        </CharString>
        <CharString name="Udieresis">
          23 callsubr
          79 95 hstem
          79 78 120 90 76 90 vstem
          -104 callgsubr
          154 59 rmoveto
          28 22 -65 callsubr
        </CharString>
        <CharString name="Ugrave">
          169 callsubr
          110 hstem
          79 78 vstem
          -104 callgsubr
          217 50 rmoveto
          60 hlineto
          -68 91 callgsubr
          endchar
        </CharString>
        <CharString name="Uhorn">
          100 -23 callsubr
          hstem
          79 78 513 65 vstem
          665 763 -96 callgsubr
        </CharString>
        <CharString name="Uhungarumlaut">
          169 callsubr
          111 hstem
          79 78 vstem
          -104 callgsubr
          126 50 rmoveto
          56 127 callgsubr
          61 -111 rmoveto
          56 127 callgsubr
          endchar
        </CharString>
        <CharString name="Umacron">
          23 callsubr
          93 54 hstem
          79 78 vstem
          -104 callgsubr
          117 73 -20 callgsubr
        </CharString>
        <CharString name="Uogonek">
          87 -211 54 147 65 -44 -21 666 -20 hstemhm
          79 78 8 65 hintmask 10111000
          614 656 rmoveto
          -76 -23 callgsubr
          hintmask 11011000
          -143 -28 -64 -56 -75 hhcurveto
          -92 -41 53 94 24 3 25 6 30 hvcurveto
          75 375 -19 callsubr
          -74 -368 rlineto
          -6 -33 -4 -32 -28 vvcurveto
          -121 60 -70 110 -14 vhcurveto
          hintmask 10111100
          -41 -30 -43 -54 -48 vvcurveto
          -45 32 -24 46 23 30 9 14 23 31 callsubr
          35 32 51 77 26 hvcurveto
          101 35 62 64 30 159 rrcurveto
          endchar
        </CharString>
        <CharString name="Uring">
          23 callsubr
          61 36 106 36 hstem
          79 78 160 43 96 43 vstem
          -104 callgsubr
          238 41 rmoveto
          53 167 callsubr
          -53 -45 -44 -55 -54 37 -25 47 hvcurveto
          12 142 143 callgsubr
          -28 -27 -16 19 28 33 24 26 29 hvcurveto
          endchar
        </CharString>
        <CharString name="Utilde">
          23 callsubr
          73 158 callgsubr
          79 78 hintmask 11011000
          -104 callgsubr
          136 55 rmoveto
          33 12 34 callgsubr
          -12 -16 -20 -21 -39 -15 55 -50 hhcurveto
          hintmask 11011000
          -45 78 callsubr
          endchar
        </CharString>
        <CharString name="V">
          -33 0 76 580 -20 hstem
          82 495 vstem
          141 hmoveto
          93 hlineto
          343 656 rlineto
          -84 hlineto
          -181 -364 -35 -70 -36 -76 -33 -70 rlinecurve
          -4 hlineto
          -4 72 -6 73 -6 71 -27 364 rcurveline
          -79 hlineto
          endchar
        </CharString>
        <CharString name="W">
          58 callsubr
          3 callsubr
          hintmask 10111000
          57 callgsubr
          hintmask 11011000
          -95 callgsubr
          endchar
        </CharString>
        <CharString name="Wacute">
          58 callsubr
          70 110 3 callsubr
          hintmask 10111100
          57 callgsubr
          hintmask 11011100
          -95 callgsubr
          305 50 rmoveto
          65 16 callsubr
        </CharString>
        <CharString name="Wcircumflex">
          58 callsubr
          70 110 3 callsubr
          hintmask 10111100
          57 callgsubr
          hintmask 11011100
          -95 callgsubr
          226 50 -47 callgsubr
          110 rlineto
          -73 hlineto
          endchar
        </CharString>
        <CharString name="Wdieresis">
          58 callsubr
          79 95 hstemhm
          99.5 79.5 163 90 4 64.5 7.5 90 hintmask 10111010
          57 callgsubr
          hintmask 11011010
          -95 callgsubr
          hintmask 10111101
          278 59 rmoveto
          27 23 -65 callsubr
        </CharString>
        <CharString name="Wgrave">
          58 callsubr
          70 110 3 callsubr
          hintmask 10111100
          57 callgsubr
          hintmask 11011100
          -95 callgsubr
          341 50 rmoveto
          60 hlineto
          -68 91 callgsubr
          endchar
        </CharString>
        <CharString name="X">
          -35 -12 callsubr
          hstem
          -36 582 vstem
          -36 hmoveto
          83 hlineto
          128 180 22 33 25 38 26 35 rlinecurve
          3 hlineto
          10 -35 11 -34 10 -33 60 -184 rcurveline
          84 hlineto
          -117 334 237 322 rlineto
          -82 hlineto
          -120 -171 -20 -30 -23 -33 -23 -32 rlinecurve
          -3 hlineto
          -11 34 -7 28 -9 30 -56 174 rcurveline
          -84 hlineto
          108 -316 rlineto
          endchar
        </CharString>
        <CharString name="Y">
          131 callgsubr
          hstem
          83 459 vstem
          -98 callsubr
          endchar
        </CharString>
        <CharString name="Yacute">
          131 callgsubr
          70 110 hstem
          83 459 vstem
          -98 callsubr
          68 450 94 callsubr
        </CharString>
        <CharString name="Ycircumflex">
          131 callgsubr
          70 110 hstem
          83 459 vstem
          -98 callsubr
          -11 450 -47 callgsubr
          110 rlineto
          -73 hlineto
          endchar
        </CharString>
        <CharString name="Ydieresis">
          131 callgsubr
          79 95 hstem
          191 90 76 90 vstem
          -98 callsubr
          41 459 rmoveto
          28 22 -65 callsubr
        </CharString>
        <CharString name="Ygrave">
          131 callgsubr
          70 110 hstem
          83 459 vstem
          -98 callsubr
          104 450 rmoveto
          61 hlineto
          -69 91 callgsubr
          endchar
        </CharString>
        <CharString name="Z">
          -17 0 66 525 65 hstem
          -1 542 -78 callsubr
          endchar
        </CharString>
        <CharString name="Zacute">
          -17 0 66 525 65 50 110 hstem
          -1 542 -78 callsubr
          286 659 rmoveto
          66 16 callsubr
        </CharString>
        <CharString name="Zcaron">
          -17 0 66 525 65 50 110 hstem
          -1 542 -78 callsubr
          486 769 rmoveto
          -65 hlineto
          -78 -70 rlineto
          -3 hlineto
          -51 10 callsubr
        </CharString>
        <CharString name="Zdotaccent">
          -17 0 66 525 65 60 103 hstem
          303 107 -78 callsubr
          343 669 -64 callgsubr
        </CharString>
        <CharString name="a">
          -84 callgsubr
          hstemhm
          39 79 hintmask 10101000
          -97 callsubr
          hintmask 01011000
          -91 callsubr
          hintmask 10101000
          -107 callsubr
          endchar
        </CharString>
        <CharString name="a.a">
          -86 callgsubr
          49 callgsubr
          hintmask 10111100
          -94 callsubr
          hintmask 01111100
          -105 callsubr
          hintmask 10111100
          -103 callgsubr
          endchar
        </CharString>
        <CharString name="a.supa">
          166 callsubr
          58 56 159 58 vstem
          58 -53 callsubr
        </CharString>
        <CharString name="a.sups">
          -48 callsubr
        </CharString>
        <CharString name="aacute">
          -84 callgsubr
          105 141 hstemhm
          39 79 hintmask 10101100
          -97 callsubr
          hintmask 01011100
          -91 callsubr
          hintmask 10101100
          -107 callsubr
          53 519 rmoveto
          62 hlineto
          137 141 rlineto
          -83 hlineto
          endchar
        </CharString>
        <CharString name="aacute.a">
          -86 callgsubr
          73 141 49 callgsubr
          hintmask 10111110
          -94 callsubr
          hintmask 01111110
          -105 callsubr
          hintmask 10111110
          -103 callgsubr
          -107 321 -74 callsubr
        </CharString>
        <CharString name="abreve">
          -84 callgsubr
          109 46 hstemhm
          39 79 115 45 hintmask 10101100
          -97 callsubr
          hintmask 01011100
          -91 callsubr
          hintmask 10101100
          -107 callsubr
          hintmask 10101110
          120 523 -69 callgsubr
          -9 23 -64 80 hhcurveto
          endchar
        </CharString>
        <CharString name="abreve.a">
          -86 callgsubr
          77 46 hstemhm
          32 75 105 44 105 76 hintmask 10111111
          -94 callsubr
          hintmask 01111111
          -105 callsubr
          hintmask 10111111
          -103 callgsubr
          -40 325 rmoveto
          82 45 8 callsubr
          -44 hhcurveto
          -44 -17 33 46 4 hvcurveto
          -44 100 callgsubr
          endchar
        </CharString>
        <CharString name="acircumflex">
          -84 callgsubr
          105 141 -49 49 hstemhm
          39 79 hintmask 10101010
          -97 callsubr
          hintmask 01011010
          -91 callsubr
          hintmask 10101010
          -107 callsubr
          -4 519 rmoveto
          58 hlineto
          hintmask 10100110
          147 callsubr
          hintmask 10101010
          -29 callgsubr
          -58 hlineto
          endchar
        </CharString>
        <CharString name="acircumflex.a">
          -86 callgsubr
          73 141 -49 49 49 callgsubr
          hintmask 10111011
          -94 callsubr
          hintmask 01111011
          -105 callsubr
          hintmask 10111011
          -103 callgsubr
          -164 321 rmoveto
          58 hlineto
          hintmask 10110111
          147 callsubr
          hintmask 10111011
          -29 callgsubr
          -58 hlineto
          endchar
        </CharString>
        <CharString name="acute">
          -12 89 callsubr
          263 198 vstem
          263 571 -74 callsubr
        </CharString>
        <CharString name="adieresis">
          -84 callgsubr
          123 95 hstemhm
          39 79 92 92 74 92 hintmask 10101100
          -97 callsubr
          hintmask 01011100
          -91 callsubr
          hintmask 10101100
          -107 callsubr
          hintmask 10101111
          44 537 rmoveto
          28 23 23 30 26 -17 16 -23 -28 -24 114 callsubr
          145 callsubr
          -27 143 callsubr
          endchar
        </CharString>
        <CharString name="adieresis.a">
          -86 callgsubr
          91 95 hstemhm
          32 75 82 92 74 92 -86 76 hintmask 1011011010000000
          -94 callsubr
          hintmask 0111011010000000
          -105 callsubr
          hintmask 1011011010000000
          -103 callgsubr
          hintmask 1011111100000000
          -116 339 16 callgsubr
        </CharString>
        <CharString name="ae">
          232 -12 61 178 52 -29 51 136 61 hstemhm
          32 75 233 64 258 66 hintmask 10111110
          32 106 rmoveto
          -76 57 -42 68 72 65 36 60 64 vhcurveto
          -54 23 60 -42 70 hhcurveto
          62 54 24 28 38 hvcurveto
          -30 51 rlineto
          -23 -30 -41 -19 -38 hhcurveto
          hintmask 11011110
          -84 -52 71 107 17 hvcurveto
          303 hlineto
          7 18 11 38 39 vvcurveto
          100 -42 76 -109 -61 -61 -36 -59 -45 vhcurveto
          64 -11 -46 31 -66 hhcurveto
          -59 -63 -22 -28 -51 hvcurveto
          21 -56 rlineto
          26 46 48 18 42 hhcurveto
          60 24 -32 -59 hvcurveto
          hintmask 10111110
          -14 -1 -12 -4 -18 vhcurveto
          -186 -6 -132 -51 -138 vvcurveto
          hintmask 11011110
          383 173 rmoveto
          96 24 68 62 61 hhcurveto
          70 24 -53 -55 -19 -2 -13 -3 -18 hvcurveto
          hintmask 10111110
          -317 -29 rmoveto
          -7 -43 0 -30 5 -42 rrcurveto
          -58 -55 -57 -28 -41 hhcurveto
          -45 -33 26 47 81 88 43 145 4 hvcurveto
          endchar
        </CharString>
        <CharString name="agrave">
          -84 callgsubr
          105 141 hstemhm
          39 79 hintmask 10101100
          -97 callsubr
          hintmask 01011100
          -91 callsubr
          hintmask 10101100
          -107 callsubr
          123 519 rmoveto
          55 hlineto
          -58 141 rlineto
          -75 hlineto
          endchar
        </CharString>
        <CharString name="agrave.a">
          -86 callgsubr
          73 141 49 callgsubr
          hintmask 10111110
          -94 callsubr
          hintmask 01111110
          -105 callsubr
          hintmask 10111110
          -103 callgsubr
          -37 321 167 callgsubr
        </CharString>
        <CharString name="amacron">
          -84 callgsubr
          135 54 hstemhm
          39 79 hintmask 10101100
          -97 callsubr
          hintmask 01011100
          -91 callsubr
          hintmask 10101100
          -107 callsubr
          7 549 -55 callsubr
        </CharString>
        <CharString name="amacron.a">
          -86 callgsubr
          103 54 49 callgsubr
          hintmask 10111110
          -94 callsubr
          hintmask 01111110
          -105 callsubr
          hintmask 10111110
          -103 callgsubr
          -153 351 -55 callsubr
        </CharString>
        <CharString name="ampersand">
          53 -12 61 565 54 hstem
          15 76 72 66 151 63 vstem
          91 151 rmoveto
          65 49 46 62 42 vhcurveto
          30 -74 46 -71 52 -57 rrcurveto
          -33 -43 -47 -20 -46 hhcurveto
          -61 -42 41 61 hvcurveto
          138 329 rmoveto
          78 44 56 57 35 15 -26 -30 -71 -65 -44 -75 -45 vhcurveto
          -7 28 -4 28 26 vvcurveto
          281 -128 rmoveto
          -35 -77 -39 -67 -54 -57 -50 53 -45 68 -28 70 rrcurveto
          91 57 93 60 102 vvcurveto
          61 -36 46 -72 -92 -80 -80 -112 -36 6 -38 12 -39 vhcurveto
          -86 -52 -80 -62 -108 vvcurveto
          -93 66 -60 99 72 64 28 45 56 vhcurveto
          41 -35 42 -25 40 -13 32 62 rcurveline
          -31 11 -35 21 -36 29 64 69 50 84 41 88 rrcurveto
          endchar
        </CharString>
        <CharString name="aogonek">
          8 -206 51 143 64 -43 -21 446 64 -12 -20 hstemhm
          39 79 118 61 hintmask 11010110
          39 164 rmoveto
          -114 55 -62 85 61 62 36 49 48 vhcurveto
          2 hlineto
          hintmask 10101110
          -7 -67 rlineto
          -51 -29 -58 -56 -60 vvcurveto
          -44 31 -23 44 23 -21 callgsubr
          44 42 43 68 31 hvcurveto
          97 486 rlineto
          -62 hlineto
          hintmask 11010110
          -19 -63 rlineto
          -2 hlineto
          45 -23 -44 30 -52 hhcurveto
          -135 -128 -147 -187 hvcurveto
          168 -112 rmoveto
          -54 -35 40 84 134 90 124 97 37 34 -20 -6 callsubr
          -218 rlineto
          -63 -48 -60 -30 -45 hhcurveto
          endchar
        </CharString>
        <CharString name="aogonek.a">
          -37 -206 51 143 61 -40 -21 262 51 135 62 hstemhm
          32 75 94 61 99 76 hintmask 10111111
          311 6 rmoveto
          -52 -29 -58 -56 -60 3 callgsubr
          -14 158 callsubr
          23 44 42 43 68 31 hvcurveto
          57 286 rlineto
          5 21 3 26 20 vvcurveto
          103 -56 42 -94 -59 -64 -22 -28 -51 vhcurveto
          25 -56 rlineto
          27 47 44 17 44 hhcurveto
          59 29 -24 -66 -14 -1 -12 -5 -19 hvcurveto
          -191 -5 -132 -52 -138 vvcurveto
          hintmask 11011111
          -76 56 -42 65 55 61 31 38 42 vhcurveto
          3 hlineto
          hintmask 10111111
          -3 -51 rlineto
          35 244 rmoveto
          hintmask 11011111
          -27 -135 rlineto
          -43 -49 -44 -23 -41 hhcurveto
          -45 -33 23 50 hvcurveto
          hintmask 10111111
          81 88 43 151 4 vhcurveto
          endchar
        </CharString>
        <CharString name="approxequal">
          -49 153 56 29 56 72 56 30 56 hstemhm
          45 406 hintmask 01011000
          88 391 rmoveto
          43 22 23 18 29 hhcurveto
          hintmask 01111000
          93 callgsubr
          hintmask 01011000
          166 callgsubr
          43 -241 rmoveto
          42 22 23 18 29 hhcurveto
          hintmask 11011000
          53 44 -85 73 hhcurveto
          41 45 27 62 33 hvcurveto
          -43 27 rlineto
          -42 -22 -23 -18 -29 hhcurveto
          hintmask 01011000
          -53 -44 85 -73 hhcurveto
          -41 -45 -26 -63 -33 hvcurveto
          endchar
        </CharString>
        <CharString name="aring">
          -84 callgsubr
          74 36 112 36 hstemhm
          39 79 130 43 95 43 hintmask 1010111110000000
          -97 callsubr
          hintmask 0101111110000000
          -91 callsubr
          hintmask 1010111110000000
          -107 callsubr
          124 488 54 callgsubr
          -24 -29 -29 -27 -15 20 29 34 25 29 28 hvcurveto
          endchar
        </CharString>
        <CharString name="aring.a">
          -86 callgsubr
          42 36 112 36 hstemhm
          32 75 120 43 91 76 -72 43 hintmask 1011111101000000
          -94 callsubr
          hintmask 0111111110000000
          -105 callsubr
          hintmask 1011111101000000
          -103 callgsubr
          -36 290 54 callgsubr
          -25 86 callgsubr
          29 hvcurveto
          endchar
        </CharString>
        <CharString name="arrowdown">
          64 -27 554 hstem
          265 63 vstem
          299 -27 rmoveto
          264 262 -42 39 -193 -195 rlineto
          448 -63 -448 vlineto
          -193 195 -42 -39 264 -262 rlineto
          endchar
        </CharString>
        <CharString name="arrowup">
          64 -27 554 hstem
          265 63 vstem
          294 527 rmoveto
          -264 -261 42 -39 193 195 rlineto
          -449 63 449 vlineto
          193 -195 42 39 -264 261 rlineto
          endchar
        </CharString>
        <CharString name="asciicircum">
          -50 594 76 hstem
          83 354 vstem
          83 283 rmoveto
          66 hlineto
          64 178 47 133 rlineto
          3 hlineto
          45 -133 65 -178 rlineto
          64 hlineto
          -146 387 rlineto
          -62 hlineto
          endchar
        </CharString>
        <CharString name="asciitilde">
          -49 260 56 30 56 hstemhm
          45 406 hintmask 01100000
          88 285 rmoveto
          43 22 23 18 29 hhcurveto
          hintmask 11100000
          93 callgsubr
          hintmask 01100000
          166 callgsubr
          endchar
        </CharString>
        <CharString name="asterisk">
          -126 422 291 hstem
          125 288 vstem
          176 434 rmoveto
          80 76 52 -88 40 23 -38 97 103 31 -7 43 -103 -14 8 107 -44 4 -25 -106 -99 33 -18 -40 88 -49 -69 -88 rlineto
          endchar
        </CharString>
        <CharString name="at">
          285 -155 52 150 53 -44 53 267 53 164 51 hstemhm
          45 57 142 61 172 47 198 55 hintmask 1101111110000000
          581 100 rmoveto
          -53 -13 42 62 14 hvcurveto
          50 217 rlineto
          -51 hlineto
          -13 -43 rlineto
          -2 hlineto
          33 -17 -25 18 -31 hhcurveto
          -108 -88 -120 -118 hvcurveto
          hintmask 1011111110000000
          -86 54 -49 61 44 40 29 38 31 vhcurveto
          3 hlineto
          hintmask 1101111110000000
          -47 9 34 -29 47 hhcurveto
          108 102 106 195 171 -108 125 -189 -224 -211 -207 -274 -202 135 -116 172 55 55 14 29 54 hvcurveto
          -23 46 rlineto
          -24 -39 -47 -13 -49 hhcurveto
          -140 -116 99 178 238 189 181 182 172 77 -110 -145 -153 -76 -85 -65 hvcurveto
          hintmask 1011111110000000
          -276 98 rmoveto
          78 56 100 79 22 19 -11 -34 18 vhcurveto
          -36 -161 rlineto
          -42 -31 -30 -19 -29 hhcurveto
          -39 -29 29 60 hvcurveto
          endchar
        </CharString>
        <CharString name="at.case">
          273 -21 50 120 52 -44 53 239 53 135 49 hstemhm
          98 56 125 60 158 48 170 53 hintmask 1101111110000000
          599 201 rmoveto
          -50 -13 41 62 15 hvcurveto
          45 192 rlineto
          -50 hlineto
          -14 -43 rlineto
          -2 hlineto
          33 -16 -24 16 -30 hhcurveto
          -102 -79 -108 -105 hvcurveto
          hintmask 1011111110000000
          -85 48 -47 56 41 41 28 38 29 vhcurveto
          3 hlineto
          hintmask 1101111110000000
          -47 9 32 -27 46 hhcurveto
          97 87 97 179 150 -93 111 -177 -205 -195 -180 -255 -168 113 -104 157 51 57 11 30 51 hvcurveto
          -14 43 rlineto
          -23 -39 -49 -11 -48 hhcurveto
          -132 -91 85 148 214 170 161 169 152 70 -92 -126 -139 -61 -79 -55 hvcurveto
          hintmask 1011111110000000
          -260 95 rmoveto
          67 48 86 72 21 18 -9 -35 17 vhcurveto
          -30 -135 rlineto
          -42 -30 -29 -18 -28 hhcurveto
          -33 -26 27 59 hvcurveto
          endchar
        </CharString>
        <CharString name="atilde">
          -84 callgsubr
          112 51 2 51 hstemhm
          39 79 hintmask 10100110
          -97 callsubr
          hintmask 01010110
          -91 callsubr
          hintmask 10100110
          -107 callsubr
          32 528 rmoveto
          70 callsubr
          hintmask 10101010
          104 callgsubr
          hintmask 10100110
          -42 -34 -42 -60 -17 hvcurveto
          endchar
        </CharString>
        <CharString name="atilde.a">
          -86 callgsubr
          80 51 2 51 49 callgsubr
          hintmask 10110111
          -94 callsubr
          hintmask 01110111
          -105 callsubr
          hintmask 10110111
          -103 callgsubr
          -128 330 rmoveto
          31 12 62 callgsubr
          58 hhcurveto
          hintmask 10111011
          42 -16 callsubr
          hintmask 10110111
          -42 -34 -42 -60 -18 hvcurveto
          endchar
        </CharString>
        <CharString name="b">
          7 -12 177 callsubr
          417 79 hintmask 01111000
          94 hmoveto
          hintmask 10111000
          15 callsubr
          hintmask 01111000
          120 callgsubr
          hintmask 10111000
          109 callgsubr
          21 51 -27 vhcurveto
          46 231 rlineto
          hintmask 01111000
          49 174 callsubr
          endchar
        </CharString>
        <CharString name="b.sups">
          -169 258 49 241 48 hstem
          311 59 vstem
          101 266 rmoveto
          14 39 -41 callsubr
          -32 16 28 -15 30 hhcurveto
          91 86 98 122 77 -37 41 -57 -41 -35 -19 -26 -31 hvcurveto
          -2 hlineto
          16 65 24 119 rlineto
          -58 hlineto
          -93 -469 rlineto
          201 282 rmoveto
          31 23 -24 -54 -86 -60 -77 -60 -22 -21 11 122 callsubr
        </CharString>
        <CharString name="backslash">
          -189 -160 870 hstem
          88 169 vstem
          203 -160 rmoveto
          54 hlineto
          -117 870 rlineto
          -52 hlineto
          endchar
        </CharString>
        <CharString name="bar">
          161 callgsubr
          -250 rmoveto
          52 1000 -52 hlineto
          endchar
        </CharString>
        <CharString name="braceleft">
          -239 179 callsubr
          47 63 -8 60 hintmask 11110000
          47 -72 rmoveto
          -56 26 -24 62 vhcurveto
          44 hlineto
          10 45 rlineto
          -24 hlineto
          -43 -12 16 33 hvcurveto
          hintmask 11101000
          63 52 137 70 vvcurveto
          29 -12 21 -32 11 vhcurveto
          4 vlineto
          47 12 24 35 13 65 12 61 7 62 11 57 rrcurveto
          64 13 18 30 53 hhcurveto
          26 hlineto
          10 45 rlineto
          -46 hlineto
          -80 -34 -31 -104 -20 hvcurveto
          -14 -68 -5 -59 -12 -64 rrcurveto
          -37 -8 -22 -42 -68 hhcurveto
          -11 -50 rlineto
          57 13 -28 -28 hvcurveto
          hintmask 11110000
          -58 -55 -137 -74 vvcurveto
          endchar
        </CharString>
        <CharString name="braceright">
          -236 179 callsubr
          137 61 -9 64 hintmask 11101000
          253 628 rmoveto
          54 -26 26 -63 vhcurveto
          -44 hlineto
          -10 -45 rlineto
          25 hlineto
          42 12 -16 -34 hvcurveto
          hintmask 11110000
          -63 -52 -137 -69 vvcurveto
          -29 11 -21 33 -11 vhcurveto
          -4 vlineto
          -47 -12 -23 -35 -14 -66 -11 -62 -8 -61 -11 -57 rrcurveto
          -65 -12 -19 -28 -53 hhcurveto
          -26 hlineto
          -9 -45 rlineto
          46 hlineto
          78 35 30 103 21 hvcurveto
          14 69 5 60 12 64 rrcurveto
          37 7 22 42 69 hhcurveto
          11 50 rlineto
          -58 -12 28 26 hvcurveto
          hintmask 11101000
          59 55 138 74 vvcurveto
          endchar
        </CharString>
        <CharString name="bracketleft">
          -237 -152 45 770 45 hstem
          8 341 vstem
          76 -107 rmoveto
          153 770 rlineto
          113 hlineto
          7 45 rlineto
          -169 hlineto
          -172 -860 rlineto
          169 hlineto
          11 45 rlineto
          endchar
        </CharString>
        <CharString name="bracketright">
          -236 -152 45 770 45 hstem
          -49 343 vstem
          -39 -107 rmoveto
          -10 -45 rlineto
          171 hlineto
          172 860 rlineto
          -171 hlineto
          -8 -45 rlineto
          112 hlineto
          -155 -770 rlineto
          endchar
        </CharString>
        <CharString name="breve">
          -12 575 46 hstem
          235 45 vstem
          329 575 -25 callsubr
          -44 hhcurveto
          -44 -17 139 callsubr
        </CharString>
        <CharString name="brokenbar">
          161 callgsubr
          289 rmoveto
          52 461 -52 hlineto
          -537 vmoveto
          -463 52 463 vlineto
          endchar
        </CharString>
        <CharString name="bullet">
          -234 145 238 hstem
          41 217 vstem
          139 145 rmoveto
          72 47 67 66 61 -42 44 -55 -74 -46 -69 -64 -62 41 -43 57 hvcurveto
          endchar
        </CharString>
        <CharString name="c">
          -94 36 callgsubr
          hstem
          37 78 vstem
          -93 callsubr
          endchar
        </CharString>
        <CharString name="c.sups">
          -237 258 48 243 47 hstem
          59 58 vstem
          59 387 rmoveto
          -80 53 -49 71 42 35 17 16 21 vhcurveto
          -20 38 rlineto
          -11 -19 -22 -12 -26 hhcurveto
          -42 -35 29 59 70 51 85 69 25 16 -9 -19 16 hvcurveto
          35 36 rlineto
          23 -21 -29 16 -38 hhcurveto
          -107 -75 -106 -103 hvcurveto
          endchar
        </CharString>
        <CharString name="cacute">
          -94 36 callgsubr
          73 141 hstem
          37 78 vstem
          -93 callsubr
          212 388 -74 callsubr
        </CharString>
        <CharString name="caron">
          -12 89 callsubr
          235 246 vstem
          481 712 rmoveto
          -58 hlineto
          132 callsubr
          -62 callsubr
        </CharString>
        <CharString name="ccaron">
          -94 36 callgsubr
          73 79 callgsubr
          37 78 hintmask 11011000
          -93 callsubr
          430 529 rmoveto
          -58 hlineto
          hintmask 11101000
          132 callsubr
          hintmask 11011000
          -62 callsubr
        </CharString>
        <CharString name="ccedilla">
          -94 -192 -21 226 -21 443 63 hstem
          37 78 66 60 vstem
          128 -75 rmoveto
          39 -85 callsubr
          -20 17 -25 9 vhcurveto
          28 41 67 2 47 29 34 26 rlinecurve
          -34 50 rlineto
          -23 -30 -35 -20 -43 hhcurveto
          -77 -38 48 88 133 91 114 97 38 23 -14 -30 25 hvcurveto
          45 48 rlineto
          33 -29 -39 26 -58 hhcurveto
          -141 -130 -134 -181 -107 54 -68 83 -16 hvcurveto
          endchar
        </CharString>
        <CharString name="ccircumflex">
          -94 36 callgsubr
          155 callsubr
          37 78 hintmask 11101000
          -93 callsubr
          155 388 rmoveto
          58 hlineto
          hintmask 11011000
          147 callsubr
          hintmask 11101000
          -29 callgsubr
          -58 hlineto
          endchar
        </CharString>
        <CharString name="cdotaccent">
          -94 36 callgsubr
          89 103 hstem
          37 78 159 106 vstem
          -93 callsubr
          285 404 rmoveto
          32 26 24 33 29 -23 17 -25 -31 -27 51 callsubr
        </CharString>
        <CharString name="cedilla">
          -12 -53 56 hstem
          191 60 vstem
          138 -75 rmoveto
          39 -85 callsubr
          -20 17 -25 9 vhcurveto
          38 56 rlineto
          -52 hlineto
          endchar
        </CharString>
        <CharString name="cent">
          -49 -14 684 -579 64 hstemhm
          78 76 hintmask 10100000
          237 158 rmoveto
          -55 15 -28 52 75 vvcurveto
          110 73 79 79 14 vhcurveto
          172 -2 rmoveto
          -27 31 -34 28 -49 7 20 103 rcurveline
          -49 hlineto
          -20 -102 rlineto
          -117 -11 -124 -104 -166 vvcurveto
          -113 56 -69 90 -13 vhcurveto
          hintmask 01100000
          -21 -106 rlineto
          50 hlineto
          21 105 61 4 45 24 42 27 rlinecurve
          -27 52 -31 -22 -35 -18 -43 -3 rlinecurve
          69 349 32 -5 21 -17 23 -26 rlinecurve
          endchar
        </CharString>
        <CharString name="circumflex">
          -12 89 callsubr
          206 245 vstem
          206 571 rmoveto
          58 hlineto
          83 92 -41 callsubr
          48 95 callgsubr
        </CharString>
        <CharString name="colon">
          -287 -12 120 249 120 hstemhm
          23 113 -49 113 hintmask 11010000
          134 357 rmoveto
          38 28 35 34 40 callsubr
          -28 18 -22 29 hvcurveto
          hintmask 11100000
          -64 -369 rmoveto
          38 28 35 34 123 callgsubr
        </CharString>
        <CharString name="colonmonetary">
          -49 -12 64 -40 -21 599 63 -11 -20 hstemhm
          62 74 hintmask 01101000
          346 590 rmoveto
          2 2 0 2 hhcurveto
          19 15 -4 -6 14 hvcurveto
          -164 -525 -18 4 -17 9 -14 13 rlinecurve
          -25 33 rmoveto
          -17 31 -9 42 50 vvcurveto
          176 75 138 98 32 vhcurveto
          206 -35 rmoveto
          -17 31 -20 27 -28 20 39 125 rcurveline
          -36 hlineto
          hintmask 01011000
          -34 -109 rlineto
          hintmask 01101000
          -16 6 -17 4 -21 1 31 98 rcurveline
          -35 hlineto
          -31 -100 rlineto
          -146 -20 -122 -166 -236 vvcurveto
          -90 26 -70 47 -41 vhcurveto
          -43 -138 rlineto
          36 hlineto
          37 118 15 -8 18 -6 18 -3 rlinecurve
          hintmask 10011000
          -31 -101 rlineto
          35 hlineto
          31 98 rlineto
          67 56 28 46 51 hvcurveto
          -38 47 -32 -31 -39 -24 -45 -2 rlinecurve
          158 505 11 -12 10 -15 9 -17 rlinecurve
          endchar
        </CharString>
        <CharString name="comma">
          -287 -164 272 -112 112 hstemhm
          26 118 hintmask 10100000
          -20 -164 rmoveto
          hintmask 01100000
          43 callgsubr
          endchar
        </CharString>
        <CharString name="comma.dnom">
          -359 -114 198 -85 85 hstemhm
          0 91 hintmask 10100000
          -24 -114 rmoveto
          hintmask 01100000
          70 26 45 51 68 vvcurveto
          32 -17 21 -25 -26 7 callsubr
          -41 -17 rrcurveto
          endchar
        </CharString>
        <CharString name="comma.numr">
          -359 156 198 -85 85 hstemhm
          50 91 hintmask 10100000
          26 156 rmoveto
          hintmask 01100000
          70 26 45 51 68 vvcurveto
          32 -17 21 -25 -26 7 callsubr
          -41 -17 rrcurveto
          endchar
        </CharString>
        <CharString name="comma.subs">
          -359 -284 198 -85 85 hstemhm
          7 51 hintmask 10100000
          -58 -284 rmoveto
          hintmask 01100000
          70 26 46 51 68 vvcurveto
          32 -18 21 -24 -27 7 callsubr
          -40 -17 rrcurveto
          endchar
        </CharString>
        <CharString name="comma.sups">
          -359 326 198 -85 85 hstemhm
          127 51 hintmask 10100000
          62 326 rmoveto
          hintmask 01100000
          70 26 46 51 68 vvcurveto
          32 -18 21 -24 -27 7 callsubr
          -40 -17 rrcurveto
          endchar
        </CharString>
        <CharString name="copyright">
          136 -11 41 95 51 286 50 101 40 hstem
          36 43 101 59 379 43 vstem
          180 276 rmoveto
          -98 60 -53 86 53 40 21 30 41 vhcurveto
          -25 39 rlineto
          -21 -33 -28 -18 -37 hhcurveto
          -60 -38 37 72 103 78 74 64 30 19 -12 -23 19 hvcurveto
          37 34 rlineto
          28 -22 -29 23 -47 hhcurveto
          -96 -112 -90 -146 hvcurveto
          118 -287 -26 callsubr
        </CharString>
        <CharString name="currency">
          -49 139 58 269 57 hstem
          67 72 227 72 vstem
          391 113 rmoveto
          43 36 -53 68 rlineto
          35 39 22 53 59 vvcurveto
          29 -6 26 -10 21 vhcurveto
          73 63 -35 42 -73 -63 rlineto
          23 -25 -34 14 -41 hhcurveto
          -41 -40 -14 -24 -34 hvcurveto
          -48 63 -44 -37 47 -61 rlineto
          -37 -40 -23 -55 -60 vvcurveto
          -30 6 -25 9 -21 vhcurveto
          -71 -62 35 -42 72 63 rlineto
          -26 24 34 -13 42 hhcurveto
          42 42 16 26 35 hvcurveto
          -58 285 rmoveto
          56 31 -38 -68 -93 -71 -70 -69 -56 -31 38 68 92 71 71 69 hvcurveto
          endchar
        </CharString>
        <CharString name="d">
          6 -12 64 -31 -21 434 64 214 -20 -52 callgsubr
          endchar
        </CharString>
        <CharString name="d.sups">
          -164 70 callgsubr
          314 551 rmoveto
          -4 hlineto
          30 -15 -28 15 -31 hhcurveto
          -90 -86 -97 -122 -77 37 -42 57 40 40 22 34 31 hvcurveto
          4 hlineto
          -6 -48 rlineto
          47 hlineto
          92 465 rlineto
          -57 hlineto
          -24 -116 rlineto
          -148 -308 rmoveto
          -32 -23 24 53 86 60 78 60 22 21 -12 -34 18 hvcurveto
          -26 -133 rlineto
          -39 -30 -39 -23 -31 hhcurveto
          endchar
        </CharString>
        <CharString name="dagger">
          -94 493.5 61 157.5 -20 hstem
          101 342 vstem
          118 -80 rmoveto
          66 hlineto
          111 576 135 -5 13 66 -137 -5 36 160 rlineto
          -66 hlineto
          -28 -160 -134 5 -13 -66 138 5 rlineto
          endchar
        </CharString>
        <CharString name="daggerdbl">
          -94 76.5 60.5 357.5 60 157.5 -20 hstem
          18 425 vstem
          18 74 rmoveto
          136 5 -35 -159 rlineto
          66 hlineto
          27 159 135 -5 13 66 -138 -6 41 182 32 182 135 -7 13 66 -137 -5 35 160 rlineto
          -65 hlineto
          -28 -160 -135 5 -12 -66 138 7 -42 -182 -31 -182 -135 6 rlineto
          endchar
        </CharString>
        <CharString name="dcaron">
          13 170 callgsubr
          50 164 -52 callgsubr
          398 496 rmoveto
          44 44 callsubr
        </CharString>
        <CharString name="dcroat">
          6 -12 64 -31 -21 414 64 94 45 -45 140 hstemhm
          39 79 hintmask 10110100
          360 145 rmoveto
          -63 -49 -53 -30 -51 hhcurveto
          -54 -35 40 84 115 88 123 97 37 34 -21 -51 26 hvcurveto
          203 275 rmoveto
          -71 hlineto
          hintmask 10101100
          19 95 -46 callgsubr
          hintmask 10110100
          -19 -95 rlineto
          -156 hlineto
          -8 -45 rlineto
          155 hlineto
          -14 -70 -16 -95 rlineto
          -3 hlineto
          43 -22 -39 28 -52 hhcurveto
          -134 -127 -148 -166 -89 callsubr
          hvcurveto
          4 hlineto
          hintmask 01110100
          -8 -72 rlineto
          63 hlineto
          116 572 70 5 rlineto
          endchar
        </CharString>
        <CharString name="degree">
          -216 432 44 166 43 hstem
          101 47 143 47 vstem
          208 432 rmoveto
          71 59 65 77 66 -45 45 -61 -72 -59 -65 -77 -66 45 -45 62 hvcurveto
          20 210 rmoveto
          40 23 -31 -39 -49 -32 -47 -48 -40 -23 31 38 49 32 48 48 hvcurveto
          endchar
        </CharString>
        <CharString name="dieresis">
          -12 589 95 hstem
          213 92 74 92 vstem
          254 589 rmoveto
          27 24 122 callgsubr
          166 hmoveto
          27 24 113 callsubr
        </CharString>
        <CharString name="divide">
          -49 97 101 104 57 101 102 hstem
          202 102 vstem
          253 460 rmoveto
          29 22 23 163 callsubr
          -23 29 hvcurveto
          -363 vmoveto
          29 22 22 163 callsubr
          -22 29 hvcurveto
          205 205 rmoveto
          57 -410 -57 vlineto
          endchar
        </CharString>
        <CharString name="dollar">
          -49 -110 162 -39 -21 598 161 hstemhm
          115 76 138 75 hintmask 01111000
          464 566 rmoveto
          -29 39 -42 31 -47 12 21 103 rcurveline
          -56 hlineto
          -20 -98 rlineto
          -103 -6 -73 -71 -98 -153 214 -13 -144 vvcurveto
          hintmask 10111000
          -69 -52 -47 -73 -60 -48 38 40 -30 vhcurveto
          hintmask 01111000
          -49 -48 34 -41 52 -37 59 -12 rlinecurve
          hintmask 10111000
          -20 -102 rlineto
          56 hlineto
          20 98 rlineto
          113 7 73 81 104 173 -213 13 122 vvcurveto
          60 46 42 64 46 40 -30 -39 27 vhcurveto
          endchar
        </CharString>
        <CharString name="dong">
          -49 0 45 65 55 257 54 82 46 hstem
          74 67 vstem
          32 hmoveto
          343 hlineto
          10 45 rlineto
          -344 hlineto
          283 175 rmoveto
          -37 -41 -35 -18 -37 hhcurveto
          -46 -24 35 54 97 75 71 66 29 25 -15 -33 18 hvcurveto
          187 230 rmoveto
          -74 hlineto
          14 71 rlineto
          -66 hlineto
          -14 -71 rlineto
          -134 hlineto
          -9 -46 rlineto
          133 hlineto
          -9 -45 -15 -85 rlineto
          28 -20 -23 20 -45 hhcurveto
          -98 -107 -94 -139 -80 43 -53 73 44 47 24 31 35 hvcurveto
          2 hlineto
          -5 -45 rlineto
          55 hlineto
          89 438 75 5 rlineto
          endchar
        </CharString>
        <CharString name="dotaccent">
          -12 587 103 hstem
          288 106 vstem
          336 587 -49 callgsubr
        </CharString>
        <CharString name="dotlessi">
          1 callgsubr
          hstem
          31 174 vstem
          -51 callsubr
          endchar
        </CharString>
        <CharString name="e">
          -67 callsubr
          hstem
          148 callsubr
          vstem
          -107 callgsubr
          endchar
        </CharString>
        <CharString name="e.sups">
          -206 258 46 109 40 97 46 hstem
          59 57 172 50 vstem
          59 395 rmoveto
          -87 50 -50 78 40 37 15 17 29 vhcurveto
          -19 40 rlineto
          -14 -22 -23 -12 -29 hhcurveto
          -60 -32 41 68 8 hvcurveto
          208 hlineto
          6 14 8 25 26 vvcurveto
          60 -25 58 -79 -85 -90 -82 -119 vhcurveto
          63 58 rmoveto
          59 16 48 38 41 hhcurveto
          44 17 -33 -35 -9 0 -9 -3 -11 hvcurveto
          endchar
        </CharString>
        <CharString name="eacute">
          -67 callsubr
          73 141 hstem
          148 callsubr
          vstem
          -107 callgsubr
          -132 292 -74 callsubr
        </CharString>
        <CharString name="eacute.sups">
          95 callsubr
          196 643 rmoveto
          47 hlineto
          93 94 rlineto
          -62 hlineto
          -214 -26 callgsubr
        </CharString>
        <CharString name="ebreve">
          -67 callsubr
          77 46 hstem
          37 74 106 45 120 65 vstem
          -107 callgsubr
          -66 296 -10 callgsubr
        </CharString>
        <CharString name="ecaron">
          -67 callsubr
          73 79 callgsubr
          148 callsubr
          hintmask 11101110
          -107 callgsubr
          86 433 rmoveto
          -58 hlineto
          hintmask 11110110
          132 callsubr
          hintmask 11101110
          -62 callsubr
        </CharString>
        <CharString name="ecircumflex">
          -67 callsubr
          155 callsubr
          148 callsubr
          hintmask 11110110
          -107 callgsubr
          -189 292 rmoveto
          58 hlineto
          hintmask 11101110
          83 92 -41 callsubr
          hintmask 11110110
          56 callsubr
          endchar
        </CharString>
        <CharString name="edieresis">
          -67 callsubr
          91 95 hstemhm
          37 74 84 92 74 92 -71 65 hintmask 11111101
          -107 callgsubr
          -141 310 rmoveto
          27 24 122 callgsubr
          hintmask 11111110
          165 hmoveto
          28 24 -83 callsubr
          23 hvcurveto
          endchar
        </CharString>
        <CharString name="edotaccent">
          -67 callsubr
          89 103 hstemhm
          37 74 158 107 6 65 hintmask 11101010
          -107 callgsubr
          hintmask 11111100
          -59 308 rmoveto
          -92 callgsubr
          -25 -32 -27 -25 -33 -29 24 -16 25 hvcurveto
          endchar
        </CharString>
        <CharString name="egrave">
          -67 callsubr
          73 141 hstem
          148 callsubr
          vstem
          -107 callgsubr
          -63 292 -9 callgsubr
        </CharString>
        <CharString name="egrave.sups">
          95 callsubr
          239 643 rmoveto
          42 hlineto
          -39 94 rlineto
          -56 hlineto
          -126 -26 callgsubr
        </CharString>
        <CharString name="eight">
          -99 callgsubr
        </CharString>
        <CharString name="eight.dnom">
          -176 -12 44 325 45 hstemhm
          13 57 -1 55 153 callsubr
          70 99 -67 callgsubr
        </CharString>
        <CharString name="eight.numr">
          -176 258 44 325 45 hstemhm
          63 57 -1 55 153 callsubr
          120 369 -67 callgsubr
        </CharString>
        <CharString name="eight.onum">
          -99 callgsubr
        </CharString>
        <CharString name="eight.pnum">
          -99 callgsubr
        </CharString>
        <CharString name="eight.subs">
          -176 -182 44 325 45 hstemhm
          -21 58 -1 54 153 callsubr
          37 -71 -66 callsubr
        </CharString>
        <CharString name="eight.sups">
          -176 428 44 325 45 hstemhm
          99 58 -1 54 153 callsubr
          157 539 -66 callsubr
        </CharString>
        <CharString name="eight.tnum">
          -99 callgsubr
        </CharString>
        <CharString name="ellipsis">
          430 -12 120 hstem
          83 113 216 112 216 113 vstem
          130 -12 rmoveto
          38 28 35 34 -4 callgsubr
          329 hmoveto
          38 27 35 34 29 -16 22 -29 -39 -28 -36 -34 182 callsubr
          hvcurveto
          328 hmoveto
          39 27 35 34 123 callgsubr
        </CharString>
        <CharString name="emacron">
          -67 callsubr
          103 54 hstem
          148 callsubr
          vstem
          -107 callgsubr
          -178 322 -55 callsubr
        </CharString>
        <CharString name="emdash">
          65 callgsubr
        </CharString>
        <CharString name="endash">
          -66 225 54 hstem
          35 392 vstem
          35 225 rmoveto
          380 hlineto
          12 54 rlineto
          -381 hlineto
          endchar
        </CharString>
        <CharString name="eogonek">
          -48 -206 51 143 61 178 52 158 61 hstem
          37 74 68 61 142 65 vstem
          179 -139 rmoveto
          -44 31 -23 43 24 -21 callgsubr
          40 33 52 112 66 hvcurveto
          -30 51 rlineto
          -23 -31 -40 -19 -38 hhcurveto
          -85 -65 53 125 18 hvcurveto
          316 hlineto
          6 18 11 38 39 vvcurveto
          100 -41 76 -109 -127 -133 -124 -183 -130 76 -73 115 8 12 1 3 11 vhcurveto
          -28 -23 -52 -50 -58 vvcurveto
          -57 418 rmoveto
          96 25 70 62 71 hhcurveto
          70 24 -53 -55 -19 -2 -15 -3 -16 hvcurveto
          endchar
        </CharString>
        <CharString name="equal">
          135 callgsubr
          408 rmoveto
          171 callgsubr
          410 -214 rmoveto
          171 callgsubr
          endchar
        </CharString>
        <CharString name="estimated">
          271 -12 20 308 18 306 20 hstem
          66 130 450 128 vstem
          204 108 rmoveto
          -4 6 -4 6 8 vvcurveto
          184 vlineto
          2 2 2 2 vhcurveto
          574 hlineto
          2 0 4 2 vvcurveto
          186 -158 150 -196 -196 -158 -150 -186 -186 158 -150 196 114 102 52 80 66 vhcurveto
          -52 hlineto
          -68 -56 -82 -44 -90 hhcurveto
          -86 -78 38 62 -54 hvcurveto
          -4 226 rmoveto
          -2 -2 2 4 hvcurveto
          180 vlineto
          8 4 8 4 6 vhcurveto
          60 56 76 38 86 hhcurveto
          82 76 -36 -58 56 hvcurveto
          6 -6 4 -8 -8 vvcurveto
          -184 vlineto
          -4 -2 -2 -4 vhcurveto
          endchar
        </CharString>
        <CharString name="eth">
          -5 -12 64 334 61 hstem
          43 70 282 74 vstem
          225 52 rmoveto
          -72 -40 58 69 103 65 104 103 52 36 -37 -40 26 hvcurveto
          -141 -9 -65 -116 -96 hhcurveto
          305 598 rmoveto
          -16 41 -145 -60 -34 39 -42 33 -46 27 rlinecurve
          -36 -46 37 -24 32 -26 26 -29 rlinecurve
          -135 -56 16 -41 147 61 36 -52 20 -62 5 -79 rlinecurve
          44 -29 -44 27 -48 hhcurveto
          -143 -88 -137 -138 -106 74 -78 99 160 93 169 190 101 -27 81 -45 66 hvcurveto
          endchar
        </CharString>
        <CharString name="exclam">
          -247 -12 120 -99 -21 hstemhm
          43 113 hintmask 01100000
          102 196 rmoveto
          54 hlineto
          86 383 19 92 -46 callgsubr
          -15 -92 rlineto
          -78 -591 rmoveto
          38 27 35 34 hvcurveto
          hintmask 10100000
          29 -16 22 -30 -38 -29 -36 -34 vhcurveto
          hintmask 01100000
          -29 19 -21 29 vhcurveto
          endchar
        </CharString>
        <CharString name="exclamdown">
          -247 378 120 0 -20 hstemhm
          126 112 hintmask 01100000
          180 290 rmoveto
          -54 hlineto
          -86 -383 -19 -92 rlineto
          77 hlineto
          15 92 rlineto
          78 591 rmoveto
          -38 -27 -34 -35 hvcurveto
          hintmask 10100000
          -29 16 -22 29 39 28 36 34 vhcurveto
          hintmask 01100000
          29 -18 21 -29 vhcurveto
          endchar
        </CharString>
        <CharString name="f">
          -247 21 -21 156 callsubr
          hstem
          43 354 vstem
          -87 callgsubr
          endchar
        </CharString>
        <CharString name="f.sups">
          -335 541 47 111 47 hstem
          62 244 vstem
          306 730 rmoveto
          11 -20 -19 5 -21 hhcurveto
          -59 -37 -42 -66 -13 hvcurveto
          -10 -50 -44 -3 -8 -44 rlineto
          42 hlineto
          -55 -275 rlineto
          58 hlineto
          55 275 rlineto
          68 hlineto
          9 47 rlineto
          -67 hlineto
          10 52 rlineto
          37 7 20 22 27 hhcurveto
          15 13 -6 -5 9 hvcurveto
          endchar
        </CharString>
        <CharString name="f_f">
          23 21 -21 424 62 166 62 -52 62 hstemhm
          43 625 hintmask 11101000
          411 486 rmoveto
          -194 hlineto
          15 73 rlineto
          57 11 31 36 47 hhcurveto
          26 18 -8 -9 16 hvcurveto
          27 56 rlineto
          13 -27 -27 10 -39 hhcurveto
          -84 -55 -59 -98 -21 hvcurveto
          -14 -71 -65 176 callgsubr
          107 callgsubr
          86 424 rlineto
          193 hlineto
          -85 -424 rlineto
          77 hlineto
          85 424 rlineto
          98 hlineto
          13 62 rlineto
          -99 hlineto
          hintmask 11011000
          17 83 rlineto
          57 11 28 36 44 hhcurveto
          22 18 -8 -9 13 hvcurveto
          28 56 rlineto
          13 -26 -26 10 -35 hhcurveto
          -81 -53 -59 -98 -20 hvcurveto
          endchar
        </CharString>
        <CharString name="f_t">
          32 -12 62 -29 -21 156 callsubr
          hstemhm
          306 78 hintmask 10111000
          444 424 rmoveto
          125 hlineto
          12 62 rlineto
          -123 hlineto
          27 134 rlineto
          -65 hlineto
          -36 -134 rlineto
          -167 hlineto
          17 83 rlineto
          57 11 27 36 44 hhcurveto
          23 17 -8 -9 14 hvcurveto
          27 56 rlineto
          13 -25 -26 10 -35 hhcurveto
          -82 -52 -59 -98 -20 hvcurveto
          -16 -81 -65 176 callgsubr
          63 hlineto
          hintmask 01111000
          110 callgsubr
          86 424 rlineto
          163 hlineto
          -57 -274 rlineto
          -4 -18 -1 -16 -20 vvcurveto
          hintmask 10111000
          -60 31 -48 85 38 32 12 10 21 vhcurveto
          -16 55 rlineto
          -7 -15 -17 -8 -19 hhcurveto
          -46 -16 20 40 13 1 11 2 12 hvcurveto
          endchar
        </CharString>
        <CharString name="fi">
          -10 21 -21 424 62 101 103 -28 62 hstemhm
          426 107 hintmask 11011000
          -87 callgsubr
          237 -481 rmoveto
          76 hlineto
          -6 callgsubr
          hintmask 11101000
          65 101 -94 callgsubr
        </CharString>
        <CharString name="figuredash">
          -49 225 54 hstem
          35 409 vstem
          35 225 rmoveto
          397 hlineto
          12 54 rlineto
          -398 hlineto
          endchar
        </CharString>
        <CharString name="five">
          -49 -12 64 292 60 168 66 hstem
          347 77 vstem
          -4 96 rmoveto
          -60 39 62 -48 87 hhcurveto
          126 114 69 callgsubr
          -299 hlineto
          -80 -301 33 -26 rlineto
          23 42 24 10 41 hhcurveto
          69 46 -40 -82 -103 -75 -67 -83 -75 -39 41 44 -29 hvcurveto
          endchar
        </CharString>
        <CharString name="five.dnom">
          -178 -12 129 callsubr
          226 60 vstem
          68 vmoveto
          -11 callsubr
        </CharString>
        <CharString name="five.numr">
          -178 258 129 callsubr
          276 60 vstem
          50 338 rmoveto
          -11 callsubr
        </CharString>
        <CharString name="five.onum">
          -44 callsubr
        </CharString>
        <CharString name="five.pnum">
          -68 -12 64 292 60 168 66 hstem
          341 77 vstem
          -10 96 rmoveto
          -60 39 61 -48 88 hhcurveto
          125 115 69 callgsubr
          -300 hlineto
          -79 -301 33 -26 rlineto
          23 41 24 10 42 hhcurveto
          69 46 -40 -82 -103 -75 -67 -84 -74 -39 41 44 -29 hvcurveto
          endchar
        </CharString>
        <CharString name="five.subs">
          -178 -182 129 callsubr
          192 60 vstem
          -34 -102 -73 callsubr
          endchar
        </CharString>
        <CharString name="five.sups">
          -178 428 129 callsubr
          312 60 vstem
          86 508 -73 callsubr
          endchar
        </CharString>
        <CharString name="five.tnum">
          -44 callsubr
        </CharString>
        <CharString name="fiveeighths">
          258 -12 44 226 49 50 45 77 44 86 51 hstemhm
          272 60 113 57 0 54 98 56 -27 54 hintmask 1111111010000000
          46 338 -73 callsubr
          107 -379 rmoveto
          483 684 rlineto
          -52 hlineto
          -484 -684 rlineto
          361 111 rmoveto
          33 26 18 callgsubr
          -32 26 41 vhcurveto
          hintmask 1111110101000000
          121 callsubr
          34 24 -22 -37 -28 -22 -28 -38 -22 vhcurveto
          hintmask 1111111010000000
          83 callgsubr
          hintmask 1111110101000000
          163 callgsubr
          -57 69 callsubr
          hintmask 1111111010000000
          -48 66 callgsubr
        </CharString>
        <CharString name="fl">
          1 -12 64 -43 -21 33 -21 156 callsubr
          -12 -20 hstemhm
          326 101 callsubr
          hintmask 00111010
          -87 callgsubr
          256 -388 rmoveto
          hintmask 01011010
          -70 callsubr
          hintmask 10010110
          -90 callsubr
          endchar
        </CharString>
        <CharString name="fl.a">
          -9 156 callsubr
          hstem
          43 489 vstem
          -87 callgsubr
          237 -481 rmoveto
          76 hlineto
          143 78 callgsubr
          endchar
        </CharString>
        <CharString name="four">
          -49 164 callgsubr
          8 439 hintmask 11011000
          316 hmoveto
          35 176 rlineto
          83 hlineto
          13 62 rlineto
          -84 137 callgsubr
          272 hlineto
          -36 -176 rlineto
          -142 176 callsubr
          24 31 26 36 27 37 rrcurveto
          4 hlineto
          -10 -44 -13 -45 -8 -38 -37 -189 rcurveline
          endchar
        </CharString>
        <CharString name="four.dnom">
          -175 106 43 184 57 hstem
          9 295 vstem
          78 149 5 callgsubr
        </CharString>
        <CharString name="four.numr">
          -175 376 43 184 57 hstem
          59 295 vstem
          128 419 5 callgsubr
        </CharString>
        <CharString name="four.onum">
          -40 callgsubr
        </CharString>
        <CharString name="four.pnum">
          -44 164 callgsubr
          19 438 hintmask 11011000
          326 hmoveto
          36 176 rlineto
          82 hlineto
          13 62 rlineto
          -83 137 callgsubr
          271 hlineto
          -35 -176 rlineto
          -143 176 callsubr
          25 31 26 36 26 37 rrcurveto
          4 hlineto
          -10 -44 -13 -45 -7 -38 -38 -189 rcurveline
          endchar
        </CharString>
        <CharString name="four.subs">
          -175 -64 43 184 57 hstem
          -24 295 vstem
          45 -21 4 callsubr
        </CharString>
        <CharString name="four.sups">
          -175 546 43 184 57 hstem
          96 295 vstem
          165 589 4 callsubr
        </CharString>
        <CharString name="four.tnum">
          -40 callgsubr
        </CharString>
        <CharString name="fraction">
          -445 -12 684 hstem
          -211 536 vstem
          -159 -12 -60 callsubr
          endchar
        </CharString>
        <CharString name="g">
          -80 callsubr
        </CharString>
        <CharString name="g.a">
          -30 callgsubr
          21 callgsubr
          hintmask 1101001010000000
          -15 callsubr
          hintmask 1110010010000000
          -35 callsubr
          hintmask 1110101100000000
          -81 callsubr
          hintmask 1110010010000000
          -92 callsubr
          hintmask 1101001010000000
          -24 callgsubr
          hintmask 1110101100000000
          -88 callsubr
          hintmask 1101001010000000
          -76 callsubr
          endchar
        </CharString>
        <CharString name="g.supa">
          -205 120 40 206 39 138 45 -35 43 hstemhm
          22 51 5 50 -43 53 108 57 -36 50 hintmask 1110001010000000
          85 459 rmoveto
          -31 12 -23 20 -18 vhcurveto
          -3 vlineto
          hintmask 1110010010000000
          -24 -16 -15 -19 -24 vvcurveto
          -18 8 -16 10 -8 vhcurveto
          -3 vlineto
          hintmask 1110101100000000
          -35 -16 -39 -26 -42 vvcurveto
          -63 67 -13 47 82 85 36 72 43 -26 19 -89 12 vhcurveto
          hintmask 1110010010000000
          -51 7 -9 7 23 vvcurveto
          12 10 12 10 8 vhcurveto
          -4 9 11 -1 13 hhcurveto
          79 57 58 76 14 -3 17 -8 12 hvcurveto
          58 hlineto
          9 45 rlineto
          -110 hlineto
          5 -13 -14 3 -16 hhcurveto
          hintmask 1110001010000000
          -76 -59 -60 -77 hvcurveto
          hintmask 1110101100000000
          45 -194 rmoveto
          18 -4 11 -3 12 -1 rrcurveto
          51 -5 24 -10 -27 vvcurveto
          -31 -46 -24 -59 -40 -28 13 32 26 28 21 29 13 vhcurveto
          hintmask 1101001010000000
          88 288 rmoveto
          32 17 -21 -35 -46 -34 -46 -47 -31 -17 21 36 46 34 45 46 hvcurveto
          endchar
        </CharString>
        <CharString name="g.sups">
          -175 116 47 108 48 229 48 hstem
          60 59 vstem
          328 588 rmoveto
          -14 -39 -9 callsubr
          32 -15 -28 15 -31 hhcurveto
          -91 -85 -97 -116 -72 37 -40 57 41 35 17 26 33 hvcurveto
          4 hlineto
          -14 -55 rlineto
          -58 -14 -34 -38 -50 hhcurveto
          -35 -34 17 20 -26 hvcurveto
          -26 -39 rlineto
          -30 36 44 -15 39 hhcurveto
          81 56 54 88 18 hvcurveto
          66 330 rlineto
          -201 -269 rmoveto
          -31 -23 23 49 80 58 77 61 22 21 -12 -34 18 hvcurveto
          -26 -134 rlineto
          -31 -30 -38 -18 -32 hhcurveto
          endchar
        </CharString>
        <CharString name="gbreve">
          -42 callgsubr
          109 46 hstemhm
          39 79 110 45 hintmask 11011100
          435 486 rmoveto
          hintmask 11101100
          -102 callsubr
          hintmask 11011100
          -57 callgsubr
          hintmask 11101100
          -70 callgsubr
          hintmask 11011100
          60 callsubr
          hintmask 11101110
          117 506 -69 callgsubr
          -9 23 -64 80 hhcurveto
          endchar
        </CharString>
        <CharString name="gbreve.a">
          -30 callgsubr
          77 46 hstemhm
          -15 68 18 66 -58 71 44 45 83 76 -44 68 hintmask 1101100110100000
          -15 callsubr
          hintmask 1110101010100000
          -35 callsubr
          hintmask 1110110111000000
          -81 callsubr
          hintmask 1110101010100000
          -92 callsubr
          hintmask 1101100110100000
          -24 callgsubr
          hintmask 1110110111000000
          -88 callsubr
          hintmask 1101100110100000
          -76 callsubr
          11 133 -69 callgsubr
          -8 22 -64 80 hhcurveto
          endchar
        </CharString>
        <CharString name="gcaron">
          -42 callgsubr
          105 79 callgsubr
          39 79 hintmask 11010110
          435 486 rmoveto
          hintmask 11100110
          -102 callsubr
          hintmask 11010110
          -57 callgsubr
          hintmask 11100110
          -70 callgsubr
          hintmask 11010110
          60 callsubr
          hintmask 11100110
          268 643 rmoveto
          -58 hlineto
          hintmask 11101010
          -83 -91 -9 callsubr
          hintmask 11100110
          -47 91 rlineto
          -53 62 callsubr
          57 hlineto
          endchar
        </CharString>
        <CharString name="gcaron.a">
          -30 callgsubr
          73 50 -50 141 -89 callgsubr
          163 270 rmoveto
          -59 hlineto
          hintmask 1110100010100000
          -83 -91 -9 callsubr
          hintmask 1110010010100000
          -62 callsubr
        </CharString>
        <CharString name="gcircumflex">
          -42 callgsubr
          105 141 -49 49 hstemhm
          39 79 hintmask 11011010
          435 486 rmoveto
          hintmask 11101010
          -102 callsubr
          hintmask 11011010
          -57 callgsubr
          hintmask 11101010
          -70 callgsubr
          hintmask 11011010
          60 callsubr
          hintmask 11101010
          -7 502 rmoveto
          59 hlineto
          hintmask 11100110
          83 92 -41 callsubr
          hintmask 11101010
          -29 callgsubr
          -58 hlineto
          endchar
        </CharString>
        <CharString name="gcircumflex.a">
          -30 callgsubr
          73 141 -49 49 21 callgsubr
          hintmask 1101100010100000
          -15 callsubr
          hintmask 1110100100100000
          -35 callsubr
          hintmask 1110101011000000
          -81 callsubr
          hintmask 1110100100100000
          -92 callsubr
          hintmask 1101100010100000
          -24 callgsubr
          hintmask 1110101011000000
          -88 callsubr
          hintmask 1101100010100000
          -76 callsubr
          -112 129 rmoveto
          58 hlineto
          hintmask 1110010010100000
          83 92 -41 callsubr
          hintmask 1110100010100000
          -29 callgsubr
          -57 hlineto
          endchar
        </CharString>
        <CharString name="gdotaccent">
          -42 callgsubr
          121 103 hstemhm
          39 79 162 107 hintmask 11010100
          435 486 rmoveto
          hintmask 11100100
          -102 callsubr
          hintmask 11010100
          -57 callgsubr
          hintmask 11100100
          -70 callgsubr
          hintmask 11010100
          60 callsubr
          hintmask 11101110
          124 518 -94 callgsubr
        </CharString>
        <CharString name="gdotaccent.a">
          -30 callgsubr
          89 103 hstemhm
          -15 68 18 66 -58 71 96 107 -31 76 -44 68 hintmask 1101000100100000
          -15 callsubr
          hintmask 1110001000100000
          -35 callsubr
          hintmask 1110010101000000
          -81 callsubr
          hintmask 1110001000100000
          -92 callsubr
          hintmask 1101000100100000
          -24 callgsubr
          hintmask 1110010101000000
          -88 callsubr
          hintmask 1101000100100000
          -76 callsubr
          hintmask 1110100110000000
          18 145 -94 callgsubr
        </CharString>
        <CharString name="germandbls">
          26 -12 60 -27 -21 662 62 hstemhm
          283 75 58 74 -57 72 hintmask 01111000
          -53 callgsubr
          102 507 rlineto
          85 18 48 70 68 hhcurveto
          52 21 -33 -45 hvcurveto
          -106 -133 -24 -105 vvcurveto
          hintmask 10110100
          -102 150 -17 -95 vvcurveto
          -51 -42 -36 -52 -41 -33 16 25 -31 vhcurveto
          -35 -51 rlineto
          -33 41 50 -17 49 hhcurveto
          95 71 70 87 hvcurveto
          123 -147 16 79 vvcurveto
          hintmask 10111000
          79 132 26 124 vvcurveto
          89 -64 43 -80 -113 -74 -90 -109 -23 vhcurveto
          endchar
        </CharString>
        <CharString name="grave">
          -12 89 callsubr
          254 134 vstem
          332 571 -9 callgsubr
        </CharString>
        <CharString name="greater">
          -49 135 391 hstem
          376 84 vstem
          48 135 rmoveto
          412 166 rlineto
          58 vlineto
          -412 167 rlineto
          -65 vlineto
          204 -80 124 -48 rlineto
          -4 vlineto
          -124 -49 -204 -79 rlineto
          endchar
        </CharString>
        <CharString name="greaterequal">
          -49 0 58 hstem
          377 83 vstem
          458 hmoveto
          171 callgsubr
          155 vmoveto
          412 153 rlineto
          65 vlineto
          -412 153 rlineto
          -65 vlineto
          203 -75 126 -44 rlineto
          -4 vlineto
          -126 -43 -203 -74 rlineto
          endchar
        </CharString>
        <CharString name="guillemotleft">
          -117 67 368 hstem
          40 354 71 callsubr
          262 -158 rmoveto
          36 22 -85 161 141 156 -28 29 -155 -148 -11 -62 rlineto
          endchar
        </CharString>
        <CharString name="guillemotright">
          -117 67 368 hstem
          23 354 68 callgsubr
          56 158 rmoveto
          -35 -22 85 -161 -142 -156 28 -29 156 148 11 62 rlineto
          endchar
        </CharString>
        <CharString name="guilsinglleft">
          -277 67 368 hstem
          40 195 71 callsubr
          endchar
        </CharString>
        <CharString name="guilsinglright">
          -277 67 368 hstem
          23 195 68 callgsubr
          endchar
        </CharString>
        <CharString name="h">
          -10 21 159 callgsubr
          214 -20 hstem
          394 78 vstem
          -100 callgsubr
          -59 -53 -35 -47 -55 vhcurveto
          -4 hlineto
          16 61 48 235 -46 callgsubr
          endchar
        </CharString>
        <CharString name="h.sups">
          -176 546 50 hstem
          296 60 vstem
          28 callgsubr
          13 3 15 15 vvcurveto
          51 -21 31 -56 -40 -36 -23 -28 -33 vhcurveto
          -4 hlineto
          17 71 24 147 callgsubr
        </CharString>
        <CharString name="hbar">
          -10 21 -21 412 66 117 callsubr
          390 78 hintmask 11001100
          182 396 rmoveto
          16 61 23 115 rlineto
          175 hlineto
          hintmask 11010100
          10 45 rlineto
          -175 hlineto
          hintmask 11001100
          19 95 -46 callgsubr
          hintmask 11100100
          -19 -95 -72 -5 rlineto
          hintmask 11001100
          -7 -40 rlineto
          70 hlineto
          -114 -572 rlineto
          76 hlineto
          65 324 -75 callgsubr
          -3 -14 -5 -26 hvcurveto
          -56 -280 rlineto
          76 hlineto
          58 290 rlineto
          6 27 2 17 23 vvcurveto
          75 -33 46 -82 -59 -53 -35 -47 -55 vhcurveto
          endchar
        </CharString>
        <CharString name="hcircumflex">
          -10 21 159 callgsubr
          214 -20 61 109 hstem
          394 78 vstem
          -100 callgsubr
          -59 -53 -35 -47 -55 vhcurveto
          -4 hlineto
          16 61 48 235 -46 callgsubr
          -87 41 24 callgsubr
        </CharString>
        <CharString name="hungarumlaut">
          -12 571 142 hstem
          229 315 vstem
          229 571 5 callsubr
        </CharString>
        <CharString name="hyphen">
          138 callsubr
          218 hlineto
          13 59 rlineto
          -219 hlineto
          endchar
        </CharString>
        <CharString name="i">
          1 callgsubr
          121 103 hstem
          144 107 vstem
          -51 callsubr
          65 101 -94 callgsubr
        </CharString>
        <CharString name="i.sups">
          -366 651 75 hstem
          129 78 128 callgsubr
          64 322 rlineto
          -58 hlineto
          46 63 94 callgsubr
        </CharString>
        <CharString name="iacute">
          1 callgsubr
          105 141 hstem
          31 284 vstem
          -51 callsubr
          -11 85 -74 callsubr
        </CharString>
        <CharString name="icircumflex">
          1 callgsubr
          105 141 -49 49 hstemhm
          31 274 hintmask 11101000
          -51 callsubr
          -68 85 rmoveto
          58 hlineto
          hintmask 11011000
          83 92 -41 callsubr
          hintmask 11101000
          56 callsubr
          endchar
        </CharString>
        <CharString name="idieresis">
          1 callgsubr
          123 95 hstem
          67 92 74 92 vstem
          -51 callsubr
          -20 103 rmoveto
          27 24 122 callgsubr
          165 hmoveto
          28 24 -83 callsubr
          23 hvcurveto
          endchar
        </CharString>
        <CharString name="igrave">
          1 callgsubr
          105 141 hstem
          31 211 vstem
          -51 callsubr
          58 85 -9 callgsubr
        </CharString>
        <CharString name="imacron">
          1 callgsubr
          135 54 hstem
          31 285 vstem
          -51 callsubr
          -57 115 -55 callsubr
        </CharString>
        <CharString name="infinity">
          223 152 71 -54 58 194 70 -43 58 hstemhm
          32 60 556 60 hintmask 01011100
          180 169 rmoveto
          77 51 58 46 33 hvcurveto
          4 hlineto
          hintmask 10011100
          -76 58 56 -45 81 hhcurveto
          96 72 76 103 107 -72 68 -97 -79 -52 -53 -67 -50 hvcurveto
          -4 hlineto
          hintmask 01101100
          47 -35 -53 58 -79 hhcurveto
          -90 -65 -67 -95 hvcurveto
          hintmask 01011100
          -92 64 -68 84 vhcurveto
          hintmask 10011100
          203 168 rmoveto
          68 47 50 43 56 hhcurveto
          68 44 -48 -65 -62 -41 -50 -65 -59 -47 40 74 -53 hvcurveto
          hintmask 01101100
          -196 -110 rmoveto
          -53 -42 42 57 58 39 37 55 47 44 -41 -57 39 hvcurveto
          -52 -33 -44 -44 -52 hhcurveto
          endchar
        </CharString>
        <CharString name="integral">
          -208 -158 60 827 60 hstem
          -26 427 vstem
          -10 -94 rmoveto
          -16 -57 rlineto
          -5 9 16 -2 19 hhcurveto
          109 38 96 131 27 hvcurveto
          28 147 2 199 29 147 rrcurveto
          102 19 25 65 54 hhcurveto
          16 13 -2 -2 7 hvcurveto
          16 58 rlineto
          4 -9 -18 2 -20 hhcurveto
          -110 -38 -99 -129 -25 hvcurveto
          -29 -146 0 -201 -30 -145 rrcurveto
          -105 -20 -22 -62 -57 hhcurveto
          -14 -11 2 2 -8 hvcurveto
          endchar
        </CharString>
        <CharString name="iogonek">
          -292 -206 51 176 -40 callsubr
          121 103 hstem
          -42 61 125 107 vstem
          31 hmoveto
          18 hlineto
          -37 -26 -54 -55 -58 3 callgsubr
          -13 hhcurveto
          -21 -16 14 23 42 32 40 56 36 hvcurveto
          -6 callgsubr
          65 101 -94 callgsubr
        </CharString>
        <CharString name="iogonek.d">
          -292 -206 51 176 -40 callsubr
          hstem
          -42 61 vstem
          31 hmoveto
          18 hlineto
          -37 -26 -54 -55 -58 3 callgsubr
          -13 hhcurveto
          -21 -16 14 23 42 32 40 56 36 hvcurveto
          -6 callgsubr
          endchar
        </CharString>
        <CharString name="itilde">
          1 callgsubr
          112 51 2 51 hstemhm
          31 311 hintmask 11011000
          -51 callsubr
          -33 94 rmoveto
          25 callgsubr
          hintmask 11101000
          42 35 22 callgsubr
          -13 -15 -20 -17 -42 -8 53 -58 hhcurveto
          hintmask 11011000
          53 callsubr
        </CharString>
        <CharString name="j">
          115 callsubr
          121 103 hstemhm
          145 106 hintmask 10111000
          7 callgsubr
          hintmask 01111000
          -25 -57 rlineto
          hintmask 10111000
          85 callsubr
          98 648 -49 callgsubr
        </CharString>
        <CharString name="j.sups">
          -365 122 46 483 75 hstem
          129 78 vstem
          177 588 rmoveto
          -58 hlineto
          -71 -361 rlineto
          -37 -8 -12 -22 -27 hhcurveto
          -13 -10 5 4 -8 hvcurveto
          -20 -41 rlineto
          -9 18 17 -5 19 hhcurveto
          59 30 39 62 12 hvcurveto
          60 428 94 callgsubr
        </CharString>
        <CharString name="jcircumflex">
          115 callsubr
          105 141 -49 49 hstemhm
          -124 425 hintmask 10110100
          7 callgsubr
          hintmask 01110100
          -25 -57 rlineto
          hintmask 10110100
          85 callsubr
          -39 632 rmoveto
          58 hlineto
          hintmask 10101100
          147 callsubr
          hintmask 10110100
          47 95 callgsubr
        </CharString>
        <CharString name="k">
          -53 63 callgsubr
          246 -20 hstem
          31 462 -63 callgsubr
          96 483 -46 callgsubr
          endchar
        </CharString>
        <CharString name="k.sups">
          -204 266 469 hstem
          56 314 128 callgsubr
          16 84 73 70 62 -154 rlineto
          57 hlineto
          -79 188 128 134 rlineto
          -64 hlineto
          -158 -161 -9 callsubr
          63 308 rlineto
          -58 hlineto
          endchar
        </CharString>
        <CharString name="kgreenlandic">
          -53 63 callgsubr
          hstem
          31 462 -63 callgsubr
          50 257 -46 callgsubr
          endchar
        </CharString>
        <CharString name="l">
          -281 -12 119 callgsubr
          hintmask 00111000
          50 93 rmoveto
          hintmask 01011000
          -70 callsubr
          hintmask 10011000
          -90 callsubr
          endchar
        </CharString>
        <CharString name="l.a">
          -291 21 -21 712 -20 hstem
          31 219 vstem
          -18 callsubr
          endchar
        </CharString>
        <CharString name="l.supa">
          -365 266 469 hstem
          56 151 128 callgsubr
          94 469 rlineto
          -58 hlineto
          endchar
        </CharString>
        <CharString name="l.sups">
          -364 258 49 hstem
          66 84 vstem
          70 340 rmoveto
          -2 -13 -2 -11 -10 vvcurveto
          -29 15 -19 32 15 13 3 3 10 vhcurveto
          -2 45 rlineto
          -2 -5 -4 0 -3 hhcurveto
          -7 -6 3 9 4 0 3 2 7 hvcurveto
          81 402 rlineto
          -58 hlineto
          endchar
        </CharString>
        <CharString name="lacute">
          -281 -12 53 callgsubr
          67 109 168 callsubr
          hintmask 00111100
          50 93 rmoveto
          hintmask 01011100
          -70 callsubr
          hintmask 10011100
          -90 callsubr
          -4 47 rmoveto
          66 hlineto
          128 109 rlineto
          -88 hlineto
          endchar
        </CharString>
        <CharString name="lacute.a">
          -291 21 -21 712 -20 67 109 hstem
          31 332 vstem
          -18 callsubr
          -4 47 rmoveto
          66 hlineto
          128 109 rlineto
          -88 hlineto
          endchar
        </CharString>
        <CharString name="lcaron">
          -287 -12 64 -43 -21 29 -21 552 164 168 callsubr
          hintmask 00111000
          50 93 rmoveto
          hintmask 01011000
          -70 callsubr
          hintmask 10011000
          -90 callsubr
          131 -164 rmoveto
          45 155 11 57 rlineto
          -55 hlineto
          -40 -212 rlineto
          endchar
        </CharString>
        <CharString name="lcaron.a">
          -287 21 -21 548 164 hstem
          31 329 vstem
          -18 callsubr
          131 -164 rmoveto
          45 155 11 57 rlineto
          -55 hlineto
          -40 -212 rlineto
          endchar
        </CharString>
        <CharString name="ldot">
          -198 -12 64 -43 -21 29 -21 275 120 321 -20 168 callsubr
          87.5 113 hintmask 00111110
          50 93 rmoveto
          hintmask 01011110
          -70 callsubr
          hintmask 10011110
          -90 callsubr
          118 -441 rmoveto
          38 28 34 35 123 callgsubr
        </CharString>
        <CharString name="ldot.a">
          -198 21 -21 271 120 321 -20 hstem
          244 113 vstem
          -18 callsubr
          118 -441 rmoveto
          38 28 34 35 123 callgsubr
        </CharString>
        <CharString name="less">
          -49 135 391 hstem
          46 84 vstem
          46 301 rmoveto
          412 -166 rlineto
          66 vlineto
          -203 79 -125 49 rlineto
          4 vlineto
          125 48 203 80 rlineto
          65 vlineto
          -412 -167 rlineto
          endchar
        </CharString>
        <CharString name="lessequal">
          -49 0 58 hstem
          46 84 vstem
          458 hmoveto
          171 callgsubr
          -2 308 rmoveto
          412 -153 rlineto
          66 vlineto
          -202 74 -126 43 rlineto
          4 vlineto
          126 44 202 75 rlineto
          65 vlineto
          -412 -153 rlineto
          endchar
        </CharString>
        <CharString name="lira">
          -49 0 66 173 45 63 45 198 63 hstemhm
          147 72 -66 75 -73 70 hintmask 11110100
          79 387 rmoveto
          -10 -40 rlineto
          84 hlineto
          2 -22 1 -22 1 -19 rrcurveto
          -3 hlineto
          -97 -5 -10 -40 rlineto
          hintmask 11110010
          108 hlineto
          -11 -81 -48 -71 -83 -41 -9 -46 rcurveline
          382 hlineto
          12 66 rlineto
          -259 hlineto
          1 4 49 48 28 52 8 69 rlinecurve
          129 hlineto
          9 45 rlineto
          hintmask 11110100
          -135 hlineto
          1 0 0 1 vvcurveto
          19 -2 21 -1 21 vhcurveto
          151 hlineto
          10 45 rlineto
          hintmask 11111000
          -165 hlineto
          -1 13 -1 12 11 64 callgsubr
          -13 1 -14 1 -15 hvcurveto
          endchar
        </CharString>
        <CharString name="logicalnot">
          -49 302 57 hstem
          398 60 vstem
          48 302 rmoveto
          350 -199 60 256 -410 hlineto
          endchar
        </CharString>
        <CharString name="lozenge">
          -30 -10 64 552 64 hstem
          70 387 vstem
          228 -10 rmoveto
          71 hlineto
          158 340 -158 340 rlineto
          -71 hlineto
          -158 -340 rlineto
          191 -276 rmoveto
          -60 133 -63 143 63 141 60 135 -41 callsubr
          61 -135 63 -141 -63 -143 -61 -133 rlineto
          endchar
        </CharString>
        <CharString name="lslash">
          -277 -12 64 -43 -21 29 -21 495 -20 241 -20 hstemhm
          49 112 hintmask 00111100
          187 377 rmoveto
          79 46 12 68 112 callgsubr
          -48 -242 rlineto
          hintmask 01011100
          -3 -17 -2 -14 -11 vvcurveto
          -40 21 -23 43 21 14 3 5 13 vhcurveto
          hintmask 10011100
          59 vlineto
          -3 -9 -3 0 -5 hhcurveto
          -10 -6 6 12 4 0 5 2 10 hvcurveto
          endchar
        </CharString>
        <CharString name="lslash.a">
          -283 21 -21 491 -20 241 -20 hstem
          32 246 vstem
          278 491 rmoveto
          112 callgsubr
          -67 -335 rlineto
          77 hlineto
          75 377 79 46 rlineto
          endchar
        </CharString>
        <CharString name="m">
          270 59 callgsubr
          hstemhm
          383 76 209 78 hintmask 11011000
          -52 callsubr
          hintmask 10111000
          90 callgsubr
          endchar
        </CharString>
        <CharString name="m.sups">
          7 542 46 -42 50 hstemhm
          291 57 132 59 hintmask 01110000
          87 callsubr
          45 223 rlineto
          37 34 34 20 23 hhcurveto
          29 13 -16 -32 -11 -2 -9 -3 -15 hvcurveto
          -39 -197 rlineto
          57 hlineto
          44 223 rlineto
          37 33 34 20 24 hhcurveto
          28 13 -16 -31 -10 -2 -11 -3 -15 hvcurveto
          -39 -197 rlineto
          57 hlineto
          40 204 rlineto
          4 17 2 14 13 vvcurveto
          52 -21 30 -56 -37 -38 -26 -34 -39 vhcurveto
          33 -7 -16 27 -51 hhcurveto
          -38 -37 -24 -30 -33 hvcurveto
          -4 hlineto
          hintmask 10110000
          4 46 rlineto
          -47 hlineto
          endchar
        </CharString>
        <CharString name="macron">
          -12 601 54 hstem
          217 245 vstem
          217 601 -55 callsubr
        </CharString>
        <CharString name="minus">
          -49 302 57 hstem
          48 410 vstem
          458 302 rmoveto
          57 -410 -57 vlineto
          endchar
        </CharString>
        <CharString name="multiply">
          -49 135 391 hstem
          65 377 vstem
          253 291 rmoveto
          148 -156 41 41 -149 155 149 155 -41 40 -148 -155 -148 155 -40 -40 148 -155 -148 -155 40 -41 rlineto
          endchar
        </CharString>
        <CharString name="n">
          -4 59 callgsubr
          hstemhm
          394 78 hintmask 11010000
          -100 callgsubr
          -61 -54 -37 -48 -55 vhcurveto
          -4 hlineto
          hintmask 10110000
          90 callgsubr
          endchar
        </CharString>
        <CharString name="n.sups">
          -174 542 46 -42 50 hstemhm
          296 60 hintmask 01100000
          28 callgsubr
          16 3 12 15 vvcurveto
          51 -21 31 -56 -41 -37 -24 -30 -35 vhcurveto
          -4 hlineto
          hintmask 10100000
          4 46 rlineto
          -47 hlineto
          endchar
        </CharString>
        <CharString name="nacute">
          -4 59 callgsubr
          105 141 hstemhm
          394 78 hintmask 11011000
          -100 callgsubr
          -61 -54 -37 -48 -55 vhcurveto
          -4 hlineto
          hintmask 10111000
          90 callgsubr
          149 85 -74 callsubr
        </CharString>
        <CharString name="napostrophe">
          210 59 callgsubr
          32 -20 120 102 hstemhm
          207 53 350 79 hintmask 11001110
          -44 callgsubr
          hintmask 10011110
          -1 -37 -34 -50 -61 -31 rrcurveto
          hintmask 11001110
          288 -67 rmoveto
          hintmask 10101110
          8 73 rlineto
          -63 hlineto
          -97 -486 rlineto
          77 hlineto
          hintmask 11001110
          68 344 -75 callgsubr
          -2 -14 -6 -26 hvcurveto
          -60 -300 rlineto
          77 hlineto
          62 310 rlineto
          5 27 3 17 23 vvcurveto
          75 -34 46 -82 -60 -55 -37 -48 -55 vhcurveto
          endchar
        </CharString>
        <CharString name="nbspace.frac">
          -397 endchar
        </CharString>
        <CharString name="ncaron">
          -4 59 callgsubr
          105 79 callgsubr
          394 78 hintmask 11001100
          -100 callgsubr
          -61 -54 -37 -48 -55 vhcurveto
          -4 hlineto
          hintmask 10101100
          90 callgsubr
          367 226 rmoveto
          -58 hlineto
          hintmask 11010100
          132 callsubr
          hintmask 11001100
          -62 callsubr
        </CharString>
        <CharString name="nine">
          -60 callgsubr
        </CharString>
        <CharString name="nine.dnom">
          -176 -12 107 callsubr
          40 56 151 57 vstem
          159 192 -33 callsubr
        </CharString>
        <CharString name="nine.numr">
          -176 258 107 callsubr
          90 56 151 57 vstem
          209 462 -33 callsubr
        </CharString>
        <CharString name="nine.onum">
          -68 callsubr
        </CharString>
        <CharString name="nine.pnum">
          -60 callgsubr
        </CharString>
        <CharString name="nine.subs">
          -176 -182 107 callsubr
          7 56 150 57 vstem
          126 22 -32 callgsubr
        </CharString>
        <CharString name="nine.sups">
          -176 428 107 callsubr
          127 56 150 57 vstem
          246 632 -32 callgsubr
        </CharString>
        <CharString name="nine.tnum">
          -68 callsubr
        </CharString>
        <CharString name="notequal">
          135 callgsubr
          194 rmoveto
          58 -224 vlineto
          94 156 rlineto
          130 58 -100 hlineto
          77 126 rlineto
          -55 hlineto
          -78 -126 rlineto
          -254 -58 224 hlineto
          -94 -156 rlineto
          -130 -58 100 hlineto
          -77 -126 rlineto
          55 hlineto
          78 126 rlineto
          endchar
        </CharString>
        <CharString name="ntilde">
          -4 59 callgsubr
          112 51 2 51 hstemhm
          394 78 hintmask 11001100
          -100 callgsubr
          -61 -54 -37 -48 -55 vhcurveto
          -4 hlineto
          hintmask 10101100
          90 callgsubr
          127 94 rmoveto
          52 callsubr
          58 hhcurveto
          hintmask 11010100
          42 -16 callsubr
          hintmask 11001100
          53 callsubr
        </CharString>
        <CharString name="numbersign">
          -50 21 -21 205 55 150 55 185 -20 hstem
          24 467 vstem
          38 hmoveto
          52 hlineto
          64 205 rlineto
          126 hlineto
          -65 -205 rlineto
          52 hlineto
          64 205 rlineto
          85 hlineto
          14 55 rlineto
          -81 hlineto
          46 150 rlineto
          82 hlineto
          14 55 rlineto
          -79 164 callsubr
          -125 164 callsubr
          -84 hlineto
          -14 -55 rlineto
          80 hlineto
          -46 -150 rlineto
          -82 hlineto
          -13 -55 rlineto
          79 hlineto
          68 55 rmoveto
          46 150 rlineto
          127 hlineto
          -46 -150 rlineto
          endchar
        </CharString>
        <CharString name="o">
          -12 callgsubr
          hstem
          80 callgsubr
          vstem
          -105 callgsubr
          endchar
        </CharString>
        <CharString name="o.sups">
          -17 callsubr
        </CharString>
        <CharString name="oacute">
          -12 callgsubr
          73 141 hstem
          80 callgsubr
          vstem
          -105 callgsubr
          -30 136 -74 callsubr
        </CharString>
        <CharString name="ocircumflex">
          -12 callgsubr
          73 141 -49 49 50 callgsubr
          hintmask 11101100
          -105 callgsubr
          -87 136 rmoveto
          58 hlineto
          hintmask 11011100
          83 92 -41 callsubr
          hintmask 11101100
          48 95 callgsubr
        </CharString>
        <CharString name="odieresis">
          -12 callgsubr
          91 95 hstemhm
          39 77 97 92 74 92 -74 78 hintmask 11111010
          -105 callgsubr
          -39 154 rmoveto
          27 24 122 callgsubr
          hintmask 11111100
          166 hmoveto
          27 24 113 callsubr
        </CharString>
        <CharString name="oe">
          283 -12 61 -61 64 175 52 156 63 hstemhm
          39 77 278 75 245 65 hintmask 01111010
          208 -12 rmoveto
          78 76 50 83 45 hvcurveto
          -87 19 56 -46 77 hhcurveto
          63 56 24 28 38 hvcurveto
          hintmask 10111010
          -29 51 rlineto
          -23 -31 -40 -19 -38 hhcurveto
          -74 -58 53 125 15 hvcurveto
          300 hlineto
          7 18 11 38 39 vvcurveto
          100 -41 76 -110 -66 -72 -46 -80 -43 vhcurveto
          81 -19 -50 45 -81 hhcurveto
          -130 -128 -131 -184 hvcurveto
          hintmask 01111010
          -121 67 -74 102 vhcurveto
          82 447 rmoveto
          hintmask 01111110
          67 37 -49 -88 -136 -87 -110 -87 -67 -37 48 88 hvcurveto
          hintmask 01111010
          136 88 111 86 vhcurveto
          hintmask 01111110
          179 -156 rmoveto
          96 23 63 62 65 hhcurveto
          70 24 -53 -55 -19 -2 -15 -4 -16 hvcurveto
          endchar
        </CharString>
        <CharString name="ogonek">
          -12 -206 51 hstem
          110 61 vstem
          110 -139 rmoveto
          -44 32 -23 43 23 -21 callgsubr
          40 33 43 56 38 hvcurveto
          -54 hlineto
          -42 -29 -54 -55 -58 vvcurveto
          endchar
        </CharString>
        <CharString name="ograve">
          -12 callgsubr
          73 141 hstem
          80 callgsubr
          vstem
          -105 callgsubr
          39 136 -9 callgsubr
        </CharString>
        <CharString name="ohorn">
          74 callgsubr
          50 callgsubr
          8 64 hintmask 10111000
          220 52 -43 callsubr
          hintmask 11011100
          -39 callsubr
          hintmask 10111000
          -85 callgsubr
          hintmask 10111100
          -8 callsubr
        </CharString>
        <CharString name="ohungarumlaut">
          -12 callgsubr
          73 142 hstem
          80 callgsubr
          vstem
          -105 callgsubr
          -64 136 5 callsubr
        </CharString>
        <CharString name="omacron">
          -12 callgsubr
          103 54 hstem
          80 callgsubr
          vstem
          -105 callgsubr
          -76 166 -55 callsubr
        </CharString>
        <CharString name="one">
          -49 0 64 478 92 callsubr
          116 574 rlineto
          -59 hlineto
          hintmask 11010000
          -37 -23 -46 -15 -57 -8 rrcurveto
          hintmask 10110000
          -10 -50 rlineto
          113 hlineto
          -96 -478 rlineto
          -139 hlineto
          endchar
        </CharString>
        <CharString name="one.dnom">
          -173 312 78 hstem
          92 165 vstem
          120 hmoveto
          60 hlineto
          77 -31 callsubr
          endchar
        </CharString>
        <CharString name="one.numr">
          -173 582 78 hstem
          142 165 vstem
          170 270 rmoveto
          60 hlineto
          77 -31 callsubr
          endchar
        </CharString>
        <CharString name="one.onum">
          -187 21 -21 478 50 -50 96 hstemhm
          76 210 hintmask 10110000
          93 hmoveto
          77 hlineto
          116 574 28 callsubr
          endchar
        </CharString>
        <CharString name="one.pnum">
          -189 21 -21 542 50 -50 96 hstemhm
          95 210 hintmask 10110000
          177 hmoveto
          128 638 28 callsubr
          -109 -542 rlineto
          endchar
        </CharString>
        <CharString name="one.subs">
          -173 142 78 hstem
          59 164 vstem
          86 -170 80 callsubr
        </CharString>
        <CharString name="one.sups">
          -173 752 78 hstem
          179 164 vstem
          206 440 80 callsubr
        </CharString>
        <CharString name="one.tnum">
          -49 0 64 414 92 callsubr
          103 510 28 callsubr
          -83 -414 rlineto
          -139 hlineto
          endchar
        </CharString>
        <CharString name="oneeighth">
          244 -12 44 325 45 180 78 hstemhm
          432 58 -1 54 99 56 -28 55 hintmask 11110100
          142 270 rmoveto
          60 hlineto
          78 -31 callsubr
          -52 -594 -60 callsubr
          389 111 rmoveto
          33 25 32 47 22 vhcurveto
          42 -21 38 134 callsubr
          120 -25 callgsubr
          34 24 -22 -37 -28 -21 -28 -39 -22 vhcurveto
          hintmask 11110100
          40 callgsubr
          71 79 65 49 70 40 -22 26 -28 20 vhcurveto
          4 vlineto
          hintmask 11101010
          37 20 40 37 51 vvcurveto
          58 -46 39 -63 -69 48 callsubr
          hintmask 11110100
          -48 66 callgsubr
        </CharString>
        <CharString name="onehalf">
          243 0 51 -42 -21 362 52 180 78 hstemhm
          659 60 hintmask 10111000
          142 270 rmoveto
          60 hlineto
          78 -31 callsubr
          hintmask 01111000
          -54 -594 -60 callsubr
          hintmask 10111000
          321 12 rmoveto
          258 hlineto
          10 51 rlineto
          -163 hlineto
          128 97 66 66 83 vvcurveto
          65 -44 40 -71 -50 -39 -27 -36 -36 vhcurveto
          35 -36 rlineto
          27 25 27 20 28 hhcurveto
          44 21 -24 -38 -72 -68 -63 -164 -115 hvcurveto
          endchar
        </CharString>
        <CharString name="onequarter">
          219 0 149 -140 -21 118 43 184 57 192 78 hstemhm
          119 577 hintmask 01111100
          146 270 rmoveto
          60 hlineto
          78 -31 callsubr
          396 90 rmoveto
          -484 -684 rlineto
          53 hlineto
          483 684 rlineto
          -187 -523 rmoveto
          86 100 67 84 -41 callsubr
          -25 -108 -15 -76 rlineto
          109 hmoveto
          -57 hlineto
          48 241 rlineto
          -65 hlineto
          -213 52 callgsubr
          hintmask 10011100
          -21 -106 rlineto
          53 hlineto
          hintmask 01111100
          21 106 rlineto
          56 hlineto
          endchar
        </CharString>
        <CharString name="onethird">
          249 -12 98 callgsubr
          180 78 hstemhm
          642 59 -37 60 hintmask 11111000
          142 270 rmoveto
          60 hlineto
          78 -31 callsubr
          -54 -594 -60 callsubr
          327 80 rmoveto
          -43 23 46 26 callgsubr
          -23 38 -45 16 hvcurveto
          hintmask 11110100
          169 callgsubr
          -46 36 -64 -44 171 callsubr
          27 -41 rlineto
          22 28 27 11 27 hhcurveto
          39 -2 callsubr
          hintmask 11111000
          76 31 -32 -39 -46 -38 -26 -47 -44 100 callsubr
        </CharString>
        <CharString name="ordfeminine">
          -48 callsubr
        </CharString>
        <CharString name="ordfeminine.a">
          166 callsubr
          43 56 159 58 vstem
          43 -53 callsubr
        </CharString>
        <CharString name="ordmasculine">
          -17 callsubr
        </CharString>
        <CharString name="oslash">
          -14 -12 62 386 62 0 -20 hstemhm
          39 73 290 73 hintmask 11011000
          396 353 rmoveto
          4 -16 2 -19 -21 vvcurveto
          -126 -84 -121 -100 -36 -27 13 25 -18 vhcurveto
          -18 40 rmoveto
          -5 17 -2 20 23 vvcurveto
          126 84 122 99 37 28 -15 -27 18 vhcurveto
          hintmask 10111000
          141 86 rmoveto
          hintmask 11011000
          -30 28 -61 -63 rlineto
          35 -31 -44 18 -52 hhcurveto
          -133 -129 -131 -184 -44 9 -38 16 -30 hvcurveto
          -64 -66 29 -28 59 61 rlineto
          -33 31 43 -17 50 hhcurveto
          133 130 130 185 hvcurveto
          hintmask 10111000
          42 -8 36 -15 30 vhcurveto
          endchar
        </CharString>
        <CharString name="otilde">
          -12 callgsubr
          80 51 2 51 50 callgsubr
          hintmask 11011100
          -105 callgsubr
          -52 145 rmoveto
          25 callgsubr
          hintmask 11101100
          43 -16 callsubr
          hintmask 11011100
          53 callsubr
        </CharString>
        <CharString name="p">
          6 126 callgsubr
          -12 -20 hstemhm
          417 79 hintmask 11101000
          115 58 rmoveto
          2 hlineto
          -41 25 41 -29 51 hhcurveto
          134 128 147 187 113 -55 63 -85 -61 -58 -35 -41 -49 hvcurveto
          -3 hlineto
          hintmask 11011000
          6 64 rlineto
          -63 hlineto
          -138 -691 rlineto
          76 hlineto
          31 159 rlineto
          hintmask 11101000
          231 480 rmoveto
          55 34 -41 -82 109 callgsubr
          20 50 -27 hvcurveto
          46 232 rlineto
          50 174 callsubr
          endchar
        </CharString>
        <CharString name="p.sups">
          -171 258 48 242 48 -46 38 hstemhm
          311 59 hintmask 11010000
          115 305 rmoveto
          4 hlineto
          -32 16 28 -15 30 hhcurveto
          91 86 98 122 77 -37 41 -57 -41 -33 -18 -28 -33 hvcurveto
          -4 hlineto
          hintmask 10110000
          1 38 rlineto
          -47 hlineto
          -91 -459 rlineto
          58 hlineto
          21 105 rlineto
          hintmask 11010000
          150 314 rmoveto
          31 23 -24 -54 -86 -61 -78 -60 -22 -20 12 122 callsubr
        </CharString>
        <CharString name="paragraph">
          6 656 -20 hstem
          73 450 vstem
          300 -80 rmoveto
          76 hlineto
          147 736 -46 callgsubr
          -153 -429 rmoveto
          15 hlineto
          87 429 rlineto
          -48 hlineto
          -141 -133 -81 -172 -115 101 -61 119 hvcurveto
          endchar
        </CharString>
        <CharString name="parenleft">
          -238 -176 907 hstem
          65 64 vstem
          122 -176 rmoveto
          50 19 rlineto
          -29 76 -14 113 93 vvcurveto
          210 73 192 141 179 vhcurveto
          -45 25 rlineto
          -148 -187 -85 -178 -233 vvcurveto
          -110 25 -114 32 -85 vhcurveto
          endchar
        </CharString>
        <CharString name="parenleft.dnom">
          -302 -79 545 hstem
          39 57 vstem
          188 466 37 callgsubr
        </CharString>
        <CharString name="parenleft.numr">
          -302 191 545 hstem
          89 57 vstem
          238 736 37 callgsubr
        </CharString>
        <CharString name="parenleft.subs">
          -302 -249 545 hstem
          6 56 vstem
          154 296 38 callgsubr
        </CharString>
        <CharString name="parenleft.sups">
          -302 361 545 hstem
          126 56 vstem
          274 906 38 callgsubr
        </CharString>
        <CharString name="parenright">
          -236 -176 907 hstem
          169 65 vstem
          177 731 rmoveto
          -50 -19 rlineto
          29 -76 13 -112 -94 vvcurveto
          -209 -72 -193 -141 -178 vhcurveto
          45 -26 rlineto
          147 187 86 178 234 vvcurveto
          109 -25 114 -32 85 vhcurveto
          endchar
        </CharString>
        <CharString name="parenright.dnom">
          -303 -79 545 hstem
          107 57 vstem
          15 -79 36 callsubr
        </CharString>
        <CharString name="parenright.numr">
          -303 191 545 hstem
          157 57 vstem
          65 191 36 callsubr
        </CharString>
        <CharString name="parenright.subs">
          -303 -249 545 hstem
          73 57 vstem
          -19 -249 37 callsubr
        </CharString>
        <CharString name="parenright.sups">
          -303 361 545 hstem
          193 57 vstem
          101 361 37 callsubr
        </CharString>
        <CharString name="partialdiff">
          -10 -11 63 290 62 201 62 hstem
          23 72 327 74 vstem
          193 52 rmoveto
          -62 -35 50 53 -1 hvcurveto
          91 62 96 96 65 41 -42 -50 26 vhcurveto
          -40 -108 -69 -89 -83 -1 rrcurveto
          17 512 rmoveto
          22 27 37 19 34 hhcurveto
          79 35 -63 -92 -44 -6 -47 -12 -46 hvcurveto
          54 -34 -49 37 -69 hhcurveto
          -138 -91 -134 -124 -97 71 -60 88 183 131 245 224 127 -59 82 -119 -53 -47 -23 -32 -41 hvcurveto
          endchar
        </CharString>
        <CharString name="percent">
          262 83 callsubr
          vstem
          184 258 -81 callgsubr
          -52 -635 -60 callsubr
          435 hmoveto
          -56 callsubr
        </CharString>
        <CharString name="period">
          -287 -12 120 hstem
          23 113 vstem
          70 -12 rmoveto
          38 28 35 34 123 callgsubr
        </CharString>
        <CharString name="period.dnom">
          -359 -8 92 hstem
          -3 89 vstem
          34 -8 rmoveto
          1 callsubr
        </CharString>
        <CharString name="period.numr">
          -359 262 92 hstem
          47 89 vstem
          84 262 rmoveto
          1 callsubr
        </CharString>
        <CharString name="period.subs">
          -359 -178 92 hstem
          -37 89 vstem
          -178 vmoveto
          1 callsubr
        </CharString>
        <CharString name="period.sups">
          -359 432 92 hstem
          83 89 vstem
          120 432 rmoveto
          1 callsubr
        </CharString>
        <CharString name="periodcentered">
          -287 268 121 hstem
          79 113 vstem
          126 268 31 callgsubr
        </CharString>
        <CharString name="perthousand">
          615 83 callsubr
          49 59 186 59 vstem
          187 -12 -60 callsubr
          49 270 -81 callgsubr
          331 -635 -51 callgsubr
          54 365 rmoveto
          49 -59 callgsubr
          75 hvcurveto
          299 -365 rmoveto
          116 66 138 125 87 -45 65 -77 -116 -66 -139 -124 -87 45 -65 77 hvcurveto
          55 365 rmoveto
          49 19 -46 -61 -95 -42 -113 -76 -49 -19 45 61 96 42 113 76 hvcurveto
          endchar
        </CharString>
        <CharString name="peseta">
          -49 21 -21 253 53 119 52 111 53 hstem
          378 72 vstem
          166 306 rmoveto
          24 119 rlineto
          181 hlineto
          -78 -21 -63 -41 -91 hhcurveto
          55 282 rmoveto
          83 44 -31 -73 hvcurveto
          -2 0 -3 -2 vvcurveto
          -178 hlineto
          22 111 rlineto
          287 -111 rmoveto
          -59 hlineto
          5 0 5 5 vvcurveto
          103 -72 46 -104 vhcurveto
          -115 hlineto
          -33 -164 -73 -4 -9 -48 rlineto
          72 hlineto
          -86 -425 rlineto
          74 hlineto
          50 253 rlineto
          41 hlineto
          119 101 56 116 28 hvcurveto
          56 hlineto
          endchar
        </CharString>
        <CharString name="pi">
          11 -12 62 373 62 hstem
          327 77 vstem
          58 hmoveto
          75 hlineto
          85 423 rlineto
          176 hlineto
          -63 -321 rlineto
          -60 -13 16 -54 67 hhcurveto
          22 15 3 8 18 hvcurveto
          -5 56 rlineto
          -3 -9 -7 -2 -9 hhcurveto
          -22 -3 20 30 6 hvcurveto
          64 323 rlineto
          72 hlineto
          13 62 rlineto
          -419 hlineto
          -67 -4 -10 -58 rlineto
          82 hlineto
          endchar
        </CharString>
        <CharString name="plus">
          -49 302 57 hstem
          222 60 vstem
          222 103 rmoveto
          60 199 176 57 -175 195 -60 -195 -175 -57 174 hlineto
          endchar
        </CharString>
        <CharString name="plusminus">
          -49 0 58 257 58 hstem
          222 60 vstem
          222 130 rmoveto
          60 185 176 58 -175 181 -60 -181 -175 -58 174 hlineto
          236 -315 rmoveto
          171 callgsubr
          endchar
        </CharString>
        <CharString name="product">
          117 570 68 hstem
          13 623 vstem
          13 -120 rmoveto
          76 hlineto
          139 690 rlineto
          319 hlineto
          -138 -690 rlineto
          76 hlineto
          151 758 rlineto
          -472 hlineto
          endchar
        </CharString>
        <CharString name="q">
          8 126 callgsubr
          -12 -20 hstemhm
          39 79 hintmask 11101000
          322 -46 rmoveto
          -33 -159 rlineto
          77 hlineto
          hintmask 11011000
          138 691 rlineto
          -62 hlineto
          hintmask 11101000
          -19 -61 -9 callsubr
          44 -23 -42 29 -52 hhcurveto
          -135 -128 -147 -187 -114 55 -62 85 61 62 36 49 48 hvcurveto
          2 hlineto
          -145 -21 -43 callgsubr
          -49 -59 -30 -45 hhcurveto
          endchar
        </CharString>
        <CharString name="q.sups">
          -173 70 callgsubr
          374 588 rmoveto
          -46 hlineto
          -14 -39 -9 callsubr
          32 -15 -28 15 -31 hhcurveto
          -90 -86 -97 -122 -77 37 -42 57 40 40 22 34 31 hvcurveto
          4 hlineto
          -23 -80 -21 -105 rlineto
          58 hlineto
          -110 178 rmoveto
          -32 -23 24 53 86 60 78 60 22 22 -12 -34 17 hvcurveto
          -26 -133 rlineto
          -39 -30 -39 -23 -31 hhcurveto
          endchar
        </CharString>
        <CharString name="question">
          -120 -12 120 -99 -21 630 64 hstemhm
          94 113 136 75 hintmask 01111000
          141 -12 rmoveto
          39 27 35 34 hvcurveto
          hintmask 10111000
          40 callsubr
          vhcurveto
          hintmask 01111000
          182 callsubr
          vhcurveto
          4 213 rmoveto
          66 -6 rlineto
          13 152 194 35 162 vvcurveto
          86 -59 52 -93 -60 -56 -29 -40 -39 vhcurveto
          41 -46 rlineto
          31 29 38 20 38 hhcurveto
          53 33 -32 -55 -123 -188 -38 -10 -169 hvcurveto
          endchar
        </CharString>
        <CharString name="questiondown">
          -120 -195 64 510 120 hstem
          -4 75 136 113 vstem
          272 499 rmoveto
          -38 -27 -34 -35 -29 16 -22 30 38 29 37 33 29 -19 21 -29 hvcurveto
          -3 -213 rmoveto
          -66 6 rlineto
          -14 -151 -193 -36 -161 vvcurveto
          -87 59 -52 93 60 56 29 41 38 vhcurveto
          -40 46 rlineto
          -32 -29 -38 -20 -39 hhcurveto
          -53 -32 33 54 123 188 39 10 168 hvcurveto
          endchar
        </CharString>
        <CharString name="quotedbl">
          -122 426 245 hstem
          128 279 96 callgsubr
          143 -153 rmoveto
          52 hlineto
          41 153 20 92 rlineto
          -76 hlineto
          -15 -92 rlineto
          endchar
        </CharString>
        <CharString name="quotedblbase">
          -242 8 101 hstem
          86 54 112 53 30 callgsubr
          182 -38 rmoveto
          74 32 58 65 92 vvcurveto
          43 -22 25 -31 -33 -22 -26 -31 -29 22 -15 28 vhcurveto
          2 1 0 2 hhcurveto
          -1 -38 -34 -50 -61 -30 rrcurveto
          endchar
        </CharString>
        <CharString name="quotedblleft">
          -122 434 101 hstem
          110 53 112 -36 callsubr
          150 38 rmoveto
          -75 -32 -58 -65 -92 vvcurveto
          -43 22 -25 31 33 22 26 31 28 -21 16 -29 vhcurveto
          -2 -1 0 -2 hhcurveto
          1 38 34 50 61 30 rrcurveto
          endchar
        </CharString>
        <CharString name="quotedblright">
          -122 598 102 hstem
          207 53 112 53 vstem
          -44 callgsubr
          -1 -37 -34 -50 -61 -31 rrcurveto
          182 -37 rmoveto
          75 32 57 65 92 vvcurveto
          43 -22 25 -31 -32 -22 -27 -30 -29 21 -16 28 vhcurveto
          2 1 0 2 hhcurveto
          -1 -37 -34 -50 -61 -31 rrcurveto
          endchar
        </CharString>
        <CharString name="quoteleft">
          -287 434 101 hstem
          110 -36 callsubr
          endchar
        </CharString>
        <CharString name="quoteright">
          -287 598 102 hstem
          207 53 vstem
          -44 callgsubr
          -1 -37 -34 -50 -61 -31 rrcurveto
          endchar
        </CharString>
        <CharString name="quotesinglbase">
          -287 8 101 hstem
          86 54 30 callgsubr
          endchar
        </CharString>
        <CharString name="quotesingle">
          -287 426 245 hstem
          128 113 96 callgsubr
          endchar
        </CharString>
        <CharString name="r">
          161 callsubr
          hstemhm
          31 349 hintmask 11001000
          -68 callgsubr
          hintmask 10011000
          27 68 rlineto
          hintmask 11001000
          -34 callgsubr
          hintmask 10101000
          133 callgsubr
          endchar
        </CharString>
        <CharString name="r.sups">
          -305 543 53 hstem
          56 229 128 callgsubr
          42 211 rlineto
          46 29 28 20 32 hhcurveto
          8 5 0 -5 8 hvcurveto
          20 53 rlineto
          4 -9 -6 1 -11 hhcurveto
          -38 -31 -24 -35 -26 hvcurveto
          -4 hlineto
          6 51 rlineto
          -47 hlineto
          endchar
        </CharString>
        <CharString name="racute">
          152 callsubr
          141 hstemhm
          31 362 hintmask 11001100
          -68 callgsubr
          hintmask 10011100
          27 68 rlineto
          hintmask 11001100
          -34 callgsubr
          hintmask 10101100
          133 callgsubr
          68 85 -74 callsubr
        </CharString>
        <CharString name="radical">
          8 -97 87 hstem
          61 591 vstem
          240 51 rmoveto
          -41 352 -138 -58 6 -44 77 32 59 -430 rlineto
          57 hlineto
          392 917 rlineto
          -58 hlineto
          -324 -769 -23 -61 -9 callsubr
          endchar
        </CharString>
        <CharString name="rcaron">
          152 callsubr
          79 callgsubr
          31 382 hintmask 11000110
          -68 callgsubr
          hintmask 10010110
          27 68 rlineto
          hintmask 11000110
          -34 callgsubr
          hintmask 10100110
          133 callgsubr
          286 226 rmoveto
          -58 hlineto
          hintmask 11001010
          132 callsubr
          hintmask 11000110
          -62 callsubr
        </CharString>
        <CharString name="registered">
          -123 323 34 130 30 70 32 56 35 hstem
          73 37 189 40 59 37 vstem
          169 417 rmoveto
          38 hlineto
          15 70 rlineto
          34 hlineto
          22 -70 rlineto
          40 hlineto
          -28 79 rlineto
          30 10 19 25 30 vvcurveto
          37 -24 21 -39 vhcurveto
          -66 hlineto
          18 -102 rmoveto
          13 70 rlineto
          25 hlineto
          23 10 -11 -19 -24 -19 -16 -30 hvcurveto
          -15 -194 rmoveto
          114 86 105 113 hvcurveto
          99 -1 -74 70 -88 hhcurveto
          -115 -84 -107 -111 -100 74 -69 88 hvcurveto
          34 352 rmoveto
          79 50 -59 -79 -97 -71 -83 -89 -80 -48 60 79 96 69 83 90 hvcurveto
          endchar
        </CharString>
        <CharString name="ring">
          -12 539 36 112 36 hstem
          251 43 95 43 vstem
          334 539 rmoveto
          54 44 46 56 53 -35 29 -49 -54 -43 -46 -56 -53 35 145 callgsubr
          16 -20 -28 -35 -25 86 callgsubr
          28 hvcurveto
          endchar
        </CharString>
        <CharString name="s">
          97 callsubr
          hstem
          72 73 127 73 vstem
          -100 callsubr
          endchar
        </CharString>
        <CharString name="s.sups">
          -258 258 44 250 44 hstem
          82 55 77 54 vstem
          28 313 rmoveto
          -31 29 42 -24 46 hhcurveto
          73 50 38 63 39 -25 27 -49 25 hvcurveto
          -32 16 -25 15 23 vvcurveto
          26 22 22 34 30 25 -16 -18 20 vhcurveto
          29 36 rlineto
          23 -26 -34 19 -43 hhcurveto
          -62 -50 -41 -57 -39 29 -26 44 -23 hvcurveto
          43 -23 16 -15 -19 vvcurveto
          -30 -26 -21 -37 -35 -29 21 24 -24 vhcurveto
          endchar
        </CharString>
        <CharString name="sacute">
          97 callsubr
          73 141 hstem
          72 73 127 73 vstem
          -100 callsubr
          156 453 -74 callsubr
        </CharString>
        <CharString name="scaron">
          97 callsubr
          73 79 callgsubr
          72 73 127 73 hintmask 11011100
          -100 callsubr
          374 594 rmoveto
          -58 hlineto
          hintmask 11101100
          -83 -91 -9 callsubr
          hintmask 11011100
          -48 91 rlineto
          -52 hlineto
          65 -141 rlineto
          58 hlineto
          endchar
        </CharString>
        <CharString name="scircumflex">
          97 callsubr
          155 callsubr
          72 73 127 73 hintmask 11101100
          -100 callsubr
          99 453 rmoveto
          58 hlineto
          hintmask 11011100
          147 callsubr
          hintmask 11101100
          -29 callgsubr
          -58 hlineto
          endchar
        </CharString>
        <CharString name="section">
          -52 -60 60 624 60 hstemhm
          56 68 24 71 56 70 25 68 hintmask 11100100
          298 186 rmoveto
          -65 55 -109 23 80 vvcurveto
          50 31 31 44 19 vhcurveto
          66 -54 105 -30 -78 vvcurveto
          -53 -26 -26 -46 -17 vhcurveto
          152 425 rmoveto
          42 -39 -53 31 -59 hhcurveto
          hintmask 11110100
          -87 -64 -57 -87 -22 6 -19 10 -17 hvcurveto
          hintmask 11101100
          -63 -27 -45 -50 -72 -148 219 -1 -105 vvcurveto
          -46 -39 -33 -50 -48 -47 28 37 -35 vhcurveto
          -41 -50 rlineto
          -47 47 60 -28 60 hhcurveto
          95 68 64 86 21 -5 18 -8 16 hvcurveto
          hintmask 11110100
          66 30 40 40 77 148 -219 15 95 vvcurveto
          47 38 27 41 43 38 -26 -32 28 vhcurveto
          endchar
        </CharString>
        <CharString name="semicolon">
          -287 -4 112 249 120 hstemhm
          26 118 -57 113 hintmask 11010000
          -20 -164 rmoveto
          hintmask 11100000
          43 callgsubr
          hintmask 11010000
          185 595 rmoveto
          -38 -29 -36 -34 -28 18 -22 29 38 28 35 34 29 -17 22 -29 hvcurveto
          endchar
        </CharString>
        <CharString name="seven">
          -49 21 -21 572 66 hstem
          107 408 vstem
          120 hmoveto
          80 hlineto
          46 218 62 184 197 186 137 callsubr
          -161 -74 -172 -57 -239 rrcurveto
          endchar
        </CharString>
        <CharString name="seven.dnom">
          -176 339 51 hstem
          66 271 vstem
          72 hmoveto
          -16 callgsubr
          endchar
        </CharString>
        <CharString name="seven.numr">
          -176 609 51 hstem
          116 271 vstem
          122 270 rmoveto
          -16 callgsubr
          endchar
        </CharString>
        <CharString name="seven.onum">
          -73 508 66 hstem
          80 398 vstem
          85 -74 rmoveto
          81 hlineto
          46 222 60 190 196 186 10 50 rcurveline
          -385 hlineto
          -13 -66 rlineto
          296 hlineto
          -160 -161 -73 -177 -58 -244 rrcurveto
          endchar
        </CharString>
        <CharString name="seven.pnum">
          -73 21 -21 572 66 hstem
          97 397 vstem
          105 hmoveto
          81 hlineto
          45 218 63 184 190 186 10 50 rcurveline
          -384 hlineto
          -13 -66 rlineto
          295 hlineto
          -156 -161 -73 -172 -58 -239 rrcurveto
          endchar
        </CharString>
        <CharString name="seven.subs">
          -176 169 51 hstem
          32 272 vstem
          39 -170 33 callsubr
        </CharString>
        <CharString name="seven.sups">
          -176 779 51 hstem
          152 272 vstem
          159 440 33 callsubr
        </CharString>
        <CharString name="seven.tnum">
          -49 508 66 hstem
          93 408 vstem
          104 -74 rmoveto
          81 hlineto
          45 222 64 188 197 188 137 callsubr
          -162 -75 -177 -58 -243 rrcurveto
          endchar
        </CharString>
        <CharString name="seveneighths">
          241 -12 44 325 45 207 51 hstemhm
          429 57 -1 55 98 56 -28 55 hintmask 11110100
          102 270 rmoveto
          -16 callgsubr
          45 -282 -60 callsubr
          391 111 rmoveto
          33 26 32 46 22 vhcurveto
          43 -21 37 134 callsubr
          121 121 rmoveto
          -39 14 -28 24 37 vvcurveto
          36 30 26 39 33 24 -22 -37 -28 -21 -28 -38 -22 vhcurveto
          hintmask 11110100
          -178 -129 rmoveto
          -61 50 -42 71 79 65 9 callgsubr
          hintmask 11101010
          37 20 39 37 51 vvcurveto
          58 -46 39 -62 -70 48 callsubr
          hintmask 11110100
          -47 66 callgsubr
        </CharString>
        <CharString name="six">
          -95 callsubr
        </CharString>
        <CharString name="six.dnom">
          -176 -12 108 callgsubr
          24 58 150 56 vstem
          169 198 -32 callsubr
        </CharString>
        <CharString name="six.numr">
          -176 258 108 callgsubr
          74 58 150 56 vstem
          219 468 -32 callsubr
        </CharString>
        <CharString name="six.onum">
          -95 callsubr
        </CharString>
        <CharString name="six.pnum">
          -95 callsubr
        </CharString>
        <CharString name="six.subs">
          -176 -182 108 callgsubr
          -10 58 150 56 vstem
          135 28 -31 callgsubr
        </CharString>
        <CharString name="six.sups">
          -176 428 108 callgsubr
          110 58 150 56 vstem
          255 638 -31 callgsubr
        </CharString>
        <CharString name="six.tnum">
          -95 callsubr
        </CharString>
        <CharString name="slash">
          -189 -160 870 hstem
          -72 490 vstem
          -72 -160 rmoveto
          55 hlineto
          435 870 rlineto
          -56 hlineto
          endchar
        </CharString>
        <CharString name="slash.frac">
          -445 -12 684 hstem
          -209 536 vstem
          -157 -12 -60 callsubr
          endchar
        </CharString>
        <CharString name="space">
          -337 endchar
        </CharString>
        <CharString name="space.frac">
          -397 endchar
        </CharString>
        <CharString name="sterling">
          -49 0 66 217 59 248 63 hstemhm
          147 72 -62 71 hintmask 11101000
          72 337 rmoveto
          -11 -54 rlineto
          96 hlineto
          -3 0 -2 -3 vvcurveto
          -96 -49 -86 -95 -47 vhcurveto
          -9 -46 rlineto
          382 hlineto
          12 66 rlineto
          -259 hlineto
          1 4 59 57 28 65 1 91 rlinecurve
          140 hlineto
          12 59 rlineto
          hintmask 11110000
          -155 hlineto
          -3 30 -3 30 26 64 callgsubr
          -27 3 -32 3 -32 hvcurveto
          endchar
        </CharString>
        <CharString name="summation">
          -44 -120 66 626 66 hstem
          -52 583 vstem
          -43 -70 rmoveto
          -9 -50 rlineto
          458 hlineto
          15 66 rlineto
          -362 4 hlineto
          275 311 -146 307 rlineto
          4 329 vlineto
          14 66 rlineto
          -421 hlineto
          -9 -51 156 -318 rlineto
          endchar
        </CharString>
        <CharString name="t">
          -204 -12 62 374 62 hstem
          69 78 vstem
          -97 callgsubr
          endchar
        </CharString>
        <CharString name="t.sups">
          -307 258 47 236 47 hstem
          80 58 vstem
          84 372 rmoveto
          -2 -13 -2 -11 -12 vvcurveto
          -43 20 -35 60 18 25 6 6 16 vhcurveto
          -10 43 rlineto
          -3 -9 -9 -5 -16 hhcurveto
          -24 -13 14 27 6 2 10 1 9 hvcurveto
          34 170 rlineto
          86 hlineto
          9 47 rlineto
          -86 hlineto
          18 89 rlineto
          -48 hlineto
          -24 -89 -50 -3 -9 -44 rlineto
          48 hlineto
          endchar
        </CharString>
        <CharString name="tcaron">
          -204 -12 62 374 62 62 72 hstem
          69 78 vstem
          -97 callgsubr
          222 124 rmoveto
          44 44 callsubr
        </CharString>
        <CharString name="thorn">
          6 126 callgsubr
          214 -20 hstem
          417 79 vstem
          234 -12 rmoveto
          134 128 147 187 113 -55 63 -85 -60 -57 -33 -39 -48 hvcurveto
          -2 hlineto
          22 96 39 190 -46 callgsubr
          -183 -917 rlineto
          76 hlineto
          31 159 18 104 rlineto
          2 hlineto
          -41 26 40 -29 51 hhcurveto
          94 446 rmoveto
          55 34 -41 -82 109 callgsubr
          20 50 -27 hvcurveto
          46 233 rlineto
          49 174 callsubr
          endchar
        </CharString>
        <CharString name="three">
          -49 -12 64 249 58 228 63 hstemhm
          343 77 -41 78 hintmask 11110000
          -9 98 rmoveto
          -60 40 69 -50 87 177 callgsubr
          -70 23 hvcurveto
          4 vlineto
          hintmask 11101000
          99 68 callsubr
          68 33 140 callsubr
          135 50 139 callgsubr
        </CharString>
        <CharString name="three.dnom">
          -178 -12 98 callgsubr
          hstemhm
          216 59 -37 60 hintmask 11110000
          68 vmoveto
          -33 callgsubr
        </CharString>
        <CharString name="three.numr">
          -178 258 98 callgsubr
          hstemhm
          266 59 -37 60 hintmask 11110000
          50 338 rmoveto
          -33 callgsubr
        </CharString>
        <CharString name="three.onum">
          -59 callsubr
        </CharString>
        <CharString name="three.pnum">
          -68 -12 64 249 58 228 63 hstemhm
          335 77 -41 78 hintmask 11110000
          -17 98 rmoveto
          -60 41 69 -50 86 177 callgsubr
          -69 23 hvcurveto
          4 vlineto
          hintmask 11101000
          98 68 callsubr
          69 32 140 callsubr
          136 49 139 callgsubr
        </CharString>
        <CharString name="three.subs">
          -178 -182 98 callgsubr
          hstemhm
          182 59 -37 61 hintmask 11110000
          -34 -102 -38 callsubr
        </CharString>
        <CharString name="three.sups">
          -178 428 98 callgsubr
          hstemhm
          302 59 -37 61 hintmask 11110000
          86 508 -38 callsubr
        </CharString>
        <CharString name="three.tnum">
          -59 callsubr
        </CharString>
</ttFont>
